<svg xmlns="http://www.w3.org/2000/svg" width="595.275" height="841.89">
  <path fill="#F26722" d="M286.363 419.655c.164-14.604-5.869-29.023-14.412-40.671-5.609-7.648-12.3-14.102-17.038-18.282-6.119-5.4-8.977-7.004-11.776-8.406-16.525-8.273-30.997-9.458-33.951-9.67l.05 77.028c25.71-.016 51.418.018 77.127.001"/>
  <path d="M293.301 419.651c-.176-3.474-.598-6.954-1.195-10.389-1.961-11.286-5.802-22.083-11.658-31.719-6.277-10.329-14.87-19.325-24.857-26.35-10.27-7.224-22.015-12.362-34.226-14.702-4.02-.77-8.089-1.237-12.178-1.465v-90.141h-7.49v89.975c-12.669.113-25.408 2.155-37.557 6.005-20.615 6.534-39.532 18.276-55.243 33.595-18.584 18.121-32.682 41.245-38.862 65.779-2.679 10.635-3.87 21.535-4.439 33.054H-.049v7.42h201.816v116.182h7.419V465.89c3.362 3.253 6.725 6.506 10.687 8.859 3.842 2.282 8.248 3.718 12.768 4.393 7.347 1.098 14.995.185 21.934-2.493 11.434-4.548 20.668-11.185 26.471-18.951 11.064-14.812 11.998-26.97 12.226-30.627l301.776.005v-7.424H293.301zm-91.533 53.642H72.711c.777-12.709 2.36-25.381 6.134-37.446 4.694-15.009 12.778-29.081 22.697-41.5 9.769-12.231 21.317-22.86 34.347-31.359 11.049-7.208 23.163-12.884 35.867-16.404a115.416 115.416 0 0127.111-4.142c.966-.03 1.934-.049 2.9-.054v130.905zm57.091-6.625c-3.905 1.828-10.92 4.717-18.271 5.086-6.88.347-14.057-1.514-20.005-5.507-4.59-3.081-8.449-7.432-10.203-12.514-.91-2.637-1.254-5.471-1.192-8.292.068-3.109.628-6.204 1.885-9.039 1.26-2.843 3.219-5.424 5.738-7.268 2.076-1.52 4.533-2.536 7.13-2.708 2.81-.186 5.784.618 7.532 2.797 1.915 2.387 2.358 6.423 1.126 9.331a7.745 7.745 0 01-2.281 3.004 6.433 6.433 0 01-1.936 1.102c-.896.314-1.936.433-2.747.026-.384-.191-.717-.501-.983-.852-.383-.503-.627-1.091-.797-1.691-.335-1.188-.378-2.431-.421-3.673h-7.429c.352 3.358.704 6.718 2.495 9.395 1.261 1.885 3.235 3.432 5.449 4.14 2.404.77 5.091.55 7.419-.401 2.769-1.132 5.03-3.3 6.6-5.875a18.005 18.005 0 002.54-10.733c-.166-1.999-.684-3.945-1.202-5.891l46.45-.029c-.821 8.551-8.881 30.174-26.897 39.592zm-49.622-47.013l-.05-77.028c2.954.211 17.425 1.396 33.951 9.67 2.799 1.401 5.657 3.006 11.776 8.406 4.737 4.18 11.428 10.633 17.038 18.282 8.543 11.648 14.576 26.067 14.412 40.671-25.71.016-51.418-.018-77.127-.001z"/>
  <path d="M325.953 392.09c2.074-.051 3.036-.759 3.036-2.277 0-1.315-.911-2.227-2.277-2.227-1.568 0-2.429 1.063-2.429 2.985v22.01h-10.019v-20.998c0-4.352.759-6.831 2.884-9.26 2.328-2.682 6.173-4.351 9.968-4.351 6.882 0 12.144 5.211 12.144 12.144 0 3.491-1.467 6.78-3.896 8.652-2.024 1.619-4.149 2.176-7.894 2.176h-1.518v-8.854zM351.962 388.295v13.915c0 1.366.607 2.125 1.67 2.125s1.771-.86 1.771-2.125v-13.915h9.26v13.763c0 6.375-4.857 11.385-10.98 11.385-3.643 0-7.083-1.721-9.006-4.554-1.266-1.821-1.974-4.503-1.974-7.589v-13.004h9.259zM380.297 401.754c-.202-.86-.304-1.315-.304-2.074 0-.86.102-1.417.456-2.328h4.654c-.304-1.72-1.416-2.732-3.086-2.732-2.277 0-3.896 2.176-3.896 5.262 0 3.238 1.519 5.363 3.846 5.363 1.063 0 1.67-.303 2.631-1.366l5.313 6.325c-2.682 2.024-5.01 2.884-8.146 2.884-7.388 0-13.004-5.566-13.004-12.852 0-7.185 5.718-12.852 13.004-12.852 7.134 0 12.649 5.515 12.649 12.548 0 .455 0 1.012-.051 1.821h-14.066zM406.861 399.022c0 3.238 1.265 4.958 3.592 4.958 1.974 0 3.593-1.569 3.593-3.542s-1.518-3.542-3.44-3.542c-.759 0-1.366.253-2.328.86v-10.17c1.315-.101 1.872-.152 2.479-.152 6.932 0 12.649 5.769 12.649 12.801 0 7.135-5.718 12.852-12.902 12.852-4.25 0-8.349-2.024-10.575-5.313-1.416-2.125-2.327-5.313-2.327-8.399v-20.543h9.26v20.19zM436.664 412.583h-9.26v-33.749h9.26v33.749zM466.416 400.338c0 6.982-5.819 12.75-12.903 12.75-7.185 0-13.003-5.768-13.003-12.852 0-7.235 5.768-12.801 13.206-12.801 6.982 0 12.7 5.769 12.7 12.903zm-16.546-.102c0 2.075 1.619 3.745 3.593 3.745 1.973 0 3.592-1.67 3.592-3.694 0-2.074-1.619-3.744-3.542-3.744-2.024 0-3.643 1.619-3.643 3.693z"/>
  <g>
    <path d="M480.764 406.537c0-2.208.614-3.845 1.842-4.908 1.025-.883 2.276-1.325 3.751-1.325 1.64 0 2.979.537 4.021 1.612 1.041 1.074 1.561 2.559 1.561 4.453 0 1.535-.229 2.742-.69 3.622-.46.88-1.13 1.563-2.01 2.05s-1.84.73-2.881.73c-1.67 0-3.02-.535-4.049-1.606s-1.545-2.614-1.545-4.628zm2.078 0c0 1.527.333 2.671.999 3.431.666.76 1.505 1.14 2.516 1.14 1.003 0 1.838-.382 2.505-1.146.666-.764.999-1.928.999-3.493 0-1.475-.335-2.592-1.005-3.353-.67-.76-1.503-1.14-2.499-1.14-1.011 0-1.85.378-2.516 1.134s-.999 1.9-.999 3.427zM494.88 412.5v-2.302h2.302v2.302h-2.302zM500.697 417.071v-16.498h1.842v1.55c.435-.606.925-1.061 1.472-1.365.547-.303 1.209-.455 1.987-.455 1.019 0 1.917.262 2.695.786.779.524 1.367 1.263 1.764 2.218.396.954.596 2 .596 3.139 0 1.22-.22 2.319-.657 3.296-.438.978-1.074 1.726-1.909 2.246-.835.521-1.713.781-2.634.781-.674 0-1.278-.142-1.813-.427s-.976-.644-1.32-1.078v5.806h-2.023zm1.831-10.467c0 1.535.311 2.669.933 3.403.621.734 1.373 1.101 2.257 1.101.898 0 1.668-.38 2.308-1.14.641-.76.961-1.937.961-3.532 0-1.52-.313-2.658-.938-3.414s-1.372-1.134-2.24-1.134c-.861 0-1.623.402-2.285 1.207-.665.805-.996 1.975-.996 3.509zM514.062 412.5v-2.302h2.302v2.302h-2.302zM519.07 408.94l2-.314c.111.801.425 1.415.938 1.842s1.229.64 2.15.64c.929 0 1.617-.189 2.066-.567.449-.378.674-.822.674-1.331 0-.457-.198-.816-.596-1.078-.276-.18-.965-.408-2.066-.685-1.482-.375-2.51-.698-3.082-.971-.573-.273-1.007-.651-1.303-1.135a2.999 2.999 0 01-.443-1.6c0-.532.121-1.024.364-1.477.243-.453.575-.829.994-1.128.314-.232.743-.429 1.286-.589a6.114 6.114 0 011.746-.242c.936 0 1.758.135 2.465.404.708.27 1.23.634 1.566 1.095.338.46.569 1.076.697 1.847l-1.977.27c-.09-.614-.351-1.093-.781-1.438s-1.039-.517-1.824-.517c-.929 0-1.592.153-1.988.46s-.596.667-.596 1.078c0 .262.083.498.248.708.164.217.423.397.774.539.202.075.798.247 1.786.517 1.43.382 2.427.694 2.992.938.565.243 1.009.597 1.331 1.061s.483 1.041.483 1.729c0 .674-.197 1.308-.59 1.904-.394.595-.961 1.056-1.701 1.381-.742.326-1.58.489-2.516.489-1.551 0-2.731-.322-3.544-.966s-1.328-1.598-1.553-2.864zM531.952 412.5v-2.302h2.302v2.302h-2.302z"/>
  </g>
  <g>
    <path d="M313.633 454l6.322-16.463h2.348L329.041 454h-2.482l-1.92-4.986h-6.885L315.945 454h-2.312zm4.75-6.76h5.582l-1.719-4.561c-.524-1.385-.913-2.522-1.168-3.414a21.101 21.101 0 01-.887 3.145l-1.808 4.83zM330.5 454v-11.926h1.82v1.808c.464-.847.893-1.403 1.285-1.673.394-.27.826-.404 1.297-.404.682 0 1.374.217 2.078.65l-.696 1.876c-.494-.292-.988-.438-1.482-.438-.441 0-.839.133-1.19.399-.352.266-.603.634-.752 1.106a7.855 7.855 0 00-.338 2.357V454H330.5zM345.965 449.632l1.988.259c-.218 1.369-.773 2.442-1.668 3.217-.895.775-1.994 1.162-3.297 1.162-1.632 0-2.943-.533-3.936-1.6-.992-1.067-1.488-2.596-1.488-4.588 0-1.287.213-2.414.641-3.381.426-.965 1.076-1.689 1.948-2.173a5.79 5.79 0 012.847-.724c1.295 0 2.354.327 3.178.982.824.654 1.352 1.585 1.584 2.791l-1.965.303c-.188-.801-.519-1.404-.994-1.809s-1.051-.605-1.725-.605c-1.018 0-1.845.364-2.481 1.095-.637.729-.954 1.885-.954 3.464 0 1.603.307 2.768.92 3.493.614.726 1.416 1.089 2.404 1.089.793 0 1.456-.242 1.987-.729s.868-1.235 1.011-2.246zM349.682 454v-16.463h2.021v5.906c.943-1.093 2.135-1.639 3.572-1.639.883 0 1.65.174 2.302.521.651.349 1.117.83 1.398 1.443.28.613.421 1.505.421 2.673V454h-2.021v-7.558c0-1.011-.219-1.746-.657-2.207-.438-.46-1.058-.69-1.858-.69-.599 0-1.162.155-1.69.466-.527.312-.903.731-1.128 1.264s-.338 1.265-.338 2.201V454h-2.022zM370.638 450.16l2.089.258c-.329 1.221-.939 2.168-1.83 2.842-.892.674-2.029 1.01-3.414 1.01-1.745 0-3.128-.537-4.15-1.611-1.021-1.074-1.533-2.581-1.533-4.52 0-2.007.518-3.564 1.551-4.672 1.033-1.108 2.373-1.662 4.02-1.662 1.596 0 2.898.543 3.908 1.628 1.012 1.085 1.517 2.612 1.517 4.582 0 .12-.004.3-.011.539h-8.895c.074 1.31.445 2.313 1.111 3.01s1.497 1.044 2.493 1.044c.741 0 1.374-.194 1.897-.584.524-.389.94-1.01 1.247-1.864zM364 446.892h6.66c-.09-1.003-.345-1.756-.764-2.257-.644-.779-1.479-1.168-2.504-1.168-.929 0-1.709.311-2.342.932s-.982 1.453-1.05 2.493zM374.512 448.037c0-2.209.614-3.845 1.842-4.908 1.025-.883 2.276-1.324 3.751-1.324 1.64 0 2.979.537 4.021 1.611s1.561 2.559 1.561 4.453c0 1.534-.229 2.742-.69 3.621-.46.88-1.13 1.563-2.01 2.05s-1.84.729-2.881.729c-1.67 0-3.02-.535-4.049-1.605s-1.545-2.613-1.545-4.627zm2.078 0c0 1.527.333 2.671.999 3.431.666.761 1.505 1.14 2.516 1.14 1.003 0 1.838-.381 2.505-1.145.666-.764.999-1.928.999-3.493 0-1.476-.335-2.593-1.005-3.353s-1.503-1.14-2.499-1.14c-1.011 0-1.85.378-2.516 1.134-.666.757-.999 1.899-.999 3.426zM388.01 454v-16.463h2.021V454h-2.021zM392.412 448.037c0-2.209.614-3.845 1.842-4.908 1.025-.883 2.276-1.324 3.751-1.324 1.64 0 2.979.537 4.021 1.611s1.561 2.559 1.561 4.453c0 1.534-.229 2.742-.69 3.621-.46.88-1.13 1.563-2.01 2.05s-1.84.729-2.881.729c-1.67 0-3.02-.535-4.049-1.605s-1.545-2.613-1.545-4.627zm2.078 0c0 1.527.333 2.671.999 3.431.666.761 1.505 1.14 2.516 1.14 1.003 0 1.838-.381 2.505-1.145.666-.764.999-1.928.999-3.493 0-1.476-.335-2.593-1.005-3.353s-1.503-1.14-2.499-1.14c-1.011 0-1.85.378-2.516 1.134-.666.757-.999 1.899-.999 3.426zM405.585 454.988l1.966.293c.082.605.311 1.048.685 1.324.502.375 1.187.563 2.056.563.936 0 1.658-.188 2.167-.563.509-.374.854-.898 1.033-1.572.104-.411.153-1.275.146-2.594-.883 1.041-1.983 1.561-3.301 1.561-1.641 0-2.909-.591-3.808-1.773-.898-1.184-1.348-2.602-1.348-4.257 0-1.138.206-2.188.618-3.15.411-.962 1.009-1.705 1.791-2.229.782-.523 1.701-.785 2.757-.785 1.407 0 2.568.568 3.481 1.707v-1.438h1.864v10.309c0 1.857-.189 3.173-.567 3.948-.378.774-.977 1.387-1.797 1.836-.819.449-1.828.674-3.026.674-1.423 0-2.571-.32-3.448-.96-.875-.642-1.299-1.606-1.269-2.894zm1.673-7.164c0 1.564.312 2.706.933 3.425s1.4 1.078 2.336 1.078c.929 0 1.707-.357 2.336-1.072.629-.716.943-1.837.943-3.364 0-1.459-.324-2.561-.972-3.301-.647-.742-1.428-1.112-2.342-1.112-.898 0-1.662.365-2.291 1.095s-.943 1.814-.943 3.251zM418.758 439.861v-2.324h2.021v2.324h-2.021zm0 14.139v-11.926h2.021V454h-2.021zM431.639 449.632l1.988.259c-.218 1.369-.773 2.442-1.668 3.217-.895.775-1.994 1.162-3.297 1.162-1.632 0-2.943-.533-3.936-1.6-.992-1.067-1.488-2.596-1.488-4.588 0-1.287.213-2.414.641-3.381.426-.965 1.076-1.689 1.948-2.173a5.79 5.79 0 012.847-.724c1.295 0 2.354.327 3.178.982.824.654 1.352 1.585 1.584 2.791l-1.965.303c-.188-.801-.519-1.404-.994-1.809s-1.051-.605-1.725-.605c-1.018 0-1.845.364-2.481 1.095-.637.729-.954 1.885-.954 3.464 0 1.603.307 2.768.92 3.493.614.726 1.416 1.089 2.404 1.089.793 0 1.456-.242 1.987-.729s.868-1.235 1.011-2.246zM435.367 454v-16.463h2.021v9.389l4.784-4.852h2.616l-4.559 4.424 5.02 7.502h-2.493l-3.942-6.098-1.426 1.37V454h-2.021zM454.639 452.529c-.749.637-1.47 1.086-2.162 1.348s-1.436.393-2.229.393c-1.311 0-2.317-.319-3.021-.96-.704-.64-1.056-1.458-1.056-2.454 0-.584.133-1.117.398-1.6a3.289 3.289 0 011.045-1.162 4.873 4.873 0 011.454-.663c.396-.104.996-.206 1.797-.304 1.632-.194 2.834-.426 3.605-.695.007-.277.011-.453.011-.528 0-.823-.19-1.403-.573-1.741-.516-.456-1.283-.685-2.302-.685-.951 0-1.652.167-2.105.5s-.788.923-1.005 1.769l-1.977-.27c.18-.846.475-1.529.887-2.05s1.007-.921 1.785-1.201c.779-.281 1.682-.421 2.707-.421 1.019 0 1.846.119 2.482.359.636.239 1.104.541 1.403.903.3.363.509.821.629 1.376.067.344.101.966.101 1.864v2.695c0 1.88.044 3.067.13 3.565s.256.976.511 1.432h-2.111c-.21-.418-.345-.908-.404-1.47zm-.168-4.514c-.734.3-1.835.554-3.303.764-.83.12-1.418.255-1.763.404s-.61.368-.798.657c-.187.288-.28.607-.28.96 0 .539.204.988.612 1.348s1.005.539 1.791.539c.778 0 1.471-.171 2.078-.511.605-.341 1.052-.807 1.336-1.398.217-.457.326-1.131.326-2.021v-.742zm-3.932-7.423l1.494-3.145h2.65l-2.471 3.145h-1.673zM465.229 450.44l2-.314c.111.802.425 1.415.938 1.842s1.229.64 2.15.64c.929 0 1.617-.188 2.066-.566.449-.379.674-.822.674-1.331 0-.456-.198-.815-.596-1.078-.276-.18-.965-.408-2.066-.685-1.482-.375-2.51-.699-3.082-.972-.573-.273-1.007-.651-1.303-1.135a3.002 3.002 0 01-.443-1.601c0-.531.121-1.023.364-1.477s.575-.829.994-1.129c.314-.231.743-.428 1.286-.589s1.125-.241 1.746-.241c.936 0 1.758.135 2.465.404.708.27 1.23.634 1.566 1.095.338.46.569 1.076.697 1.847l-1.977.27c-.09-.613-.351-1.093-.781-1.438-.431-.344-1.039-.516-1.824-.516-.929 0-1.592.152-1.988.46s-.596.667-.596 1.078c0 .263.083.498.248.708.164.217.423.396.774.539.202.074.798.246 1.786.516 1.43.383 2.427.695 2.992.938s1.009.597 1.331 1.062c.322.464.483 1.04.483 1.729 0 .674-.197 1.309-.59 1.904-.394.595-.961 1.056-1.701 1.381-.742.326-1.58.488-2.516.488-1.551 0-2.731-.321-3.544-.965-.81-.644-1.329-1.599-1.553-2.864zM477.537 458.571v-16.497h1.842v1.549c.435-.605.925-1.061 1.472-1.364.547-.303 1.209-.454 1.987-.454 1.019 0 1.917.262 2.695.785.779.524 1.367 1.264 1.764 2.219.396.954.596 2 .596 3.139 0 1.221-.22 2.319-.657 3.296-.438.978-1.074 1.726-1.909 2.246s-1.713.78-2.634.78c-.674 0-1.278-.142-1.813-.426a4.154 4.154 0 01-1.32-1.078v5.806h-2.023zm1.831-10.467c0 1.534.311 2.669.933 3.403.621.733 1.373 1.1 2.257 1.1.898 0 1.668-.379 2.308-1.14.641-.76.961-1.937.961-3.532 0-1.52-.313-2.657-.938-3.414-.625-.756-1.372-1.134-2.24-1.134-.861 0-1.623.402-2.285 1.207-.665.806-.996 1.976-.996 3.51zM489.576 448.037c0-2.209.614-3.845 1.842-4.908 1.025-.883 2.276-1.324 3.751-1.324 1.64 0 2.979.537 4.021 1.611s1.561 2.559 1.561 4.453c0 1.534-.229 2.742-.69 3.621-.46.88-1.13 1.563-2.01 2.05s-1.84.729-2.881.729c-1.67 0-3.02-.535-4.049-1.605s-1.545-2.613-1.545-4.627zm2.078 0c0 1.527.333 2.671.999 3.431.666.761 1.505 1.14 2.516 1.14 1.003 0 1.838-.381 2.505-1.145.666-.764.999-1.928.999-3.493 0-1.476-.335-2.593-1.005-3.353s-1.503-1.14-2.499-1.14c-1.011 0-1.85.378-2.516 1.134-.666.757-.999 1.899-.999 3.426zM503.074 454v-16.463h2.021V454h-2.021zM516.394 450.16l2.089.258c-.329 1.221-.939 2.168-1.83 2.842-.892.674-2.029 1.01-3.414 1.01-1.745 0-3.128-.537-4.15-1.611-1.021-1.074-1.533-2.581-1.533-4.52 0-2.007.518-3.564 1.551-4.672 1.033-1.108 2.373-1.662 4.02-1.662 1.596 0 2.898.543 3.908 1.628 1.012 1.085 1.517 2.612 1.517 4.582 0 .12-.004.3-.011.539h-8.895c.074 1.31.445 2.313 1.111 3.01s1.497 1.044 2.493 1.044c.741 0 1.374-.194 1.897-.584.524-.389.94-1.01 1.247-1.864zm-6.638-3.268h6.66c-.09-1.003-.345-1.756-.764-2.257-.644-.779-1.479-1.168-2.504-1.168-.929 0-1.709.311-2.342.932s-.982 1.453-1.05 2.493zM528.803 449.632l1.988.259c-.218 1.369-.773 2.442-1.668 3.217-.895.775-1.994 1.162-3.297 1.162-1.632 0-2.943-.533-3.936-1.6-.992-1.067-1.488-2.596-1.488-4.588 0-1.287.213-2.414.641-3.381.426-.965 1.076-1.689 1.948-2.173a5.79 5.79 0 012.847-.724c1.295 0 2.354.327 3.178.982.824.654 1.352 1.585 1.584 2.791l-1.965.303c-.188-.801-.519-1.404-.994-1.809s-1.051-.605-1.725-.605c-1.018 0-1.845.364-2.481 1.095-.637.729-.954 1.885-.954 3.464 0 1.603.307 2.768.92 3.493.614.726 1.416 1.089 2.404 1.089.793 0 1.456-.242 1.987-.729s.868-1.235 1.011-2.246zm-2.998-10.277l1.234-1.908h2.291l-2.526 3.145h-2.156l-2.426-3.145h2.313l1.27 1.908zM532.52 454v-11.926h1.82v1.695c.875-1.311 2.141-1.965 3.795-1.965.719 0 1.38.129 1.982.387.603.259 1.054.598 1.354 1.017s.509.917.629 1.493c.075.375.112 1.029.112 1.966V454h-2.021v-7.254c0-.824-.079-1.439-.235-1.848-.158-.408-.437-.734-.837-.978s-.87-.364-1.409-.364c-.861 0-1.604.273-2.229.819s-.938 1.583-.938 3.11V454h-2.023zM544.559 448.037c0-2.209.614-3.845 1.842-4.908 1.025-.883 2.276-1.324 3.751-1.324 1.64 0 2.979.537 4.021 1.611s1.561 2.559 1.561 4.453c0 1.534-.229 2.742-.69 3.621-.46.88-1.13 1.563-2.01 2.05s-1.84.729-2.881.729c-1.67 0-3.02-.535-4.049-1.605s-1.545-2.613-1.545-4.627zm2.078 0c0 1.527.333 2.671.999 3.431.666.761 1.505 1.14 2.516 1.14 1.003 0 1.838-.381 2.505-1.145.666-.764.999-1.928.999-3.493 0-1.476-.335-2.593-1.005-3.353s-1.503-1.14-2.499-1.14c-1.011 0-1.85.378-2.516 1.134-.666.757-.999 1.899-.999 3.426zM557.293 450.44l2-.314c.111.802.425 1.415.938 1.842s1.229.64 2.15.64c.929 0 1.617-.188 2.066-.566.449-.379.674-.822.674-1.331 0-.456-.198-.815-.596-1.078-.276-.18-.965-.408-2.066-.685-1.482-.375-2.51-.699-3.082-.972-.573-.273-1.007-.651-1.303-1.135a3.002 3.002 0 01-.443-1.601c0-.531.121-1.023.364-1.477s.575-.829.994-1.129c.314-.231.743-.428 1.286-.589s1.125-.241 1.746-.241c.936 0 1.758.135 2.465.404.708.27 1.23.634 1.566 1.095.338.46.569 1.076.697 1.847l-1.977.27c-.09-.613-.351-1.093-.781-1.438-.431-.344-1.039-.516-1.824-.516-.929 0-1.592.152-1.988.46s-.596.667-.596 1.078c0 .263.083.498.248.708.164.217.423.396.774.539.202.074.798.246 1.786.516 1.43.383 2.427.695 2.992.938s1.009.597 1.331 1.062c.322.464.483 1.04.483 1.729 0 .674-.197 1.309-.59 1.904-.394.595-.961 1.056-1.701 1.381-.742.326-1.58.488-2.516.488-1.551 0-2.731-.321-3.544-.965-.81-.644-1.328-1.599-1.553-2.864zM574.016 452.192l.292 1.786a7.555 7.555 0 01-1.527.18c-.733 0-1.303-.117-1.707-.349s-.688-.537-.854-.915c-.165-.379-.247-1.174-.247-2.387v-6.861h-1.482v-1.572h1.482v-2.954l2.01-1.213v4.167h2.033v1.572h-2.033v6.974c0 .577.036.947.107 1.112.071.164.187.295.348.393s.392.146.691.146c.225 0 .519-.027.887-.079z"/>
  </g>
</svg>
