<?xml version="1.0" encoding="utf-8"?>
<svg version="1.1" id="Layer_1" xmlns="http://www.w3.org/2000/svg" xmlns:xlink="http://www.w3.org/1999/xlink" x="0px" y="0px"
	 viewBox="0 0 100 100" style="enable-background:new 0 0 100 100;" xml:space="preserve">
<path d="M95,24.7v33c0,6.1-4.9,11-11,11H63.8c-1.7,0-3-1.3-3-3s1.3-3,3-3H84c2.8,0,5-2.2,5-5v-33c0-2.8-2.2-5-5-5H16
	c-2.8,0-5,2.2-5,5v33c0,2.8,2.2,5,5,5h19.9c1.7,0,3,1.3,3,3s-1.3,3-3,3H16c-6.1,0-11-4.9-11-11v-33c0-6.1,4.9-11,11-11h68
	C90.1,13.7,95,18.7,95,24.7z M60.9,53.4c0.6,0.6,1.4,0.9,2.1,0.9s1.5-0.3,2.1-0.9c1.2-1.2,1.2-3.1,0-4.2L52.1,36.1c0,0,0,0,0,0
	c-0.3-0.3-0.7-0.5-1.1-0.7c-0.8-0.3-1.6-0.2-2.4,0.1c-0.3,0.1-0.6,0.3-0.8,0.6L34.8,49.2c-1.2,1.2-1.2,3.1,0,4.2
	c0.6,0.6,1.4,0.9,2.1,0.9s1.5-0.3,2.1-0.9l7.9-7.9v37.8c0,1.7,1.3,3,3,3c1.7,0,3-1.3,3-3V45.5L60.9,53.4z"/>
</svg>
