<?xml version="1.0" standalone="no"?>
<!DOCTYPE svg PUBLIC "-//W3C//DTD SVG 20010904//EN"
 "http://www.w3.org/TR/2001/REC-SVG-20010904/DTD/svg10.dtd">
<svg version="1.0" xmlns="http://www.w3.org/2000/svg"
 width="700.000000pt" height="700.000000pt" viewBox="0 0 700.000000 700.000000"
 preserveAspectRatio="xMidYMid meet">
<metadata>
Created by potrace 1.14, written by Peter Selinger 2001-2017
</metadata>
<g transform="translate(0.000000,700.000000) scale(0.100000,-0.100000)"
fill="#000000" stroke="none">
<path d="M3339 6586 c-2 -2 -44 -6 -94 -10 -105 -8 -147 -12 -195 -21 -19 -3
-62 -10 -95 -16 -587 -101 -1168 -398 -1600 -819 -323 -315 -525 -614 -726
-1075 -4 -11 -27 -74 -49 -140 -69 -201 -119 -419 -145 -625 -30 -240 -25
-649 10 -820 2 -8 4 -24 4 -35 1 -17 4 -15 24 10 63 83 170 174 272 232 169
95 299 128 495 127 148 -2 294 -38 434 -109 39 -19 71 -35 71 -35 1 0 -2 21
-6 48 -8 49 -5 399 4 442 3 14 8 43 12 65 29 198 142 484 263 666 206 311 498
545 852 684 52 20 106 39 119 42 14 2 28 6 31 8 10 6 178 42 240 52 69 10 408
10 475 0 296 -45 567 -153 799 -320 99 -70 278 -239 346 -326 164 -206 294
-477 349 -726 31 -141 36 -197 36 -390 l0 -180 105 53 c154 77 270 104 440
105 108 0 153 -4 225 -22 170 -43 321 -128 448 -250 43 -42 79 -77 81 -78 1
-2 3 3 3 10 1 6 5 55 9 107 21 233 8 550 -31 770 -1 8 -6 35 -10 60 -26 165
-113 453 -193 640 -41 96 -141 294 -180 358 -73 116 -161 246 -223 324 -96
123 -102 129 -229 261 -338 351 -747 610 -1225 774 -174 60 -442 120 -615 138
-30 4 -68 8 -85 11 -35 6 -441 15 -446 10z"/>
<path d="M3428 4735 c-2 -2 -32 -6 -68 -9 -446 -45 -854 -362 -1014 -788 -123
-327 -104 -685 54 -998 120 -238 334 -443 583 -560 359 -168 795 -149 1132 51
118 69 194 129 281 222 359 381 440 939 204 1407 -56 111 -130 211 -229 311
-229 229 -517 353 -843 363 -54 2 -99 2 -100 1z"/>
<path d="M5661 3149 c-179 -45 -333 -150 -495 -338 -25 -29 -82 -116 -172
-261 -269 -432 -743 -735 -1266 -807 -68 -10 -386 -10 -458 0 -244 32 -497
124 -714 260 -227 142 -401 317 -572 577 -212 323 -467 496 -744 505 -332 12
-621 -233 -635 -536 -4 -81 11 -164 40 -221 8 -17 15 -35 15 -40 0 -13 146
-303 178 -356 80 -127 164 -249 236 -342 104 -133 350 -383 487 -493 354 -283
761 -485 1204 -596 97 -24 148 -34 355 -66 167 -26 601 -26 750 -1 14 3 45 7
70 10 126 16 313 57 421 92 25 8 54 16 65 18 68 14 304 110 449 183 688 346
1211 913 1490 1613 51 128 63 175 63 259 1 247 -179 463 -446 537 -84 24 -232
25 -321 3z"/>
</g>
</svg>
