<?xml version="1.0" encoding="utf-8"?>
<!-- Generator: Adobe Illustrator 15.1.0, SVG Export Plug-In . SVG Version: 6.00 Build 0)  -->
<!DOCTYPE svg PUBLIC "-//W3C//DTD SVG 1.1//EN" "http://www.w3.org/Graphics/SVG/1.1/DTD/svg11.dtd">
<svg version="1.1" id="Layer_1" xmlns="http://www.w3.org/2000/svg" xmlns:xlink="http://www.w3.org/1999/xlink" x="0px" y="0px"
	 width="64px" height="64px" viewBox="0 0 64 64" enable-background="new 0 0 64 64" xml:space="preserve">
<g id="Rectangle_30">
	<g>
		<rect x="7" y="1" fill="#EDF2F8" width="46" height="62"/>
	</g>
</g>
<g id="Rounded_Rectangle_7_9_">
	<g>
		<path fill="#8592A5" d="M16.127,49.208C15.462,49.533,15,50.21,15,51c0,1.104,0.896,2,2,2s2-0.896,2-2
			c0-0.688-0.347-1.291-0.873-1.65c0.733-5.311,4.933-9.502,10.244-10.227C28.731,39.646,29.317,40,30,40s1.269-0.354,1.629-0.877
			c5.313,0.725,9.512,4.916,10.244,10.227C41.348,49.709,41,50.313,41,51c0,1.104,0.896,2,2,2s2-0.896,2-2
			c0-0.79-0.462-1.467-1.127-1.792c-0.557-4.336-3.092-8.051-6.672-10.208h4.076c0.347,0.596,0.984,1,1.723,1c1.104,0,2-0.896,2-2
			s-0.896-2-2-2c-0.738,0-1.376,0.404-1.723,1h-9.555c-0.347-0.596-0.984-1-1.723-1c-0.739,0-1.376,0.404-1.723,1h-9.555
			c-0.347-0.596-0.984-1-1.723-1c-1.104,0-2,0.896-2,2s0.896,2,2,2c0.738,0,1.376-0.404,1.723-1h4.076
			C19.219,41.157,16.683,44.872,16.127,49.208z M56,8h-2V2c0-1.104-0.896-2-2-2H8C6.896,0,6,0.896,6,2v60c0,1.104,0.896,2,2,2h44
			c1.104,0,2-0.896,2-2V26h2c1.104,0,2-0.896,2-2V10C58,8.896,57.104,8,56,8z M52,8H28c-1.104,0-2,0.896-2,2v14c0,1.104,0.896,2,2,2
			h24v36H8V2h44V8z"/>
	</g>
</g>
<g>
	<path fill="#FFFFFF" d="M37.65,20.383c-0.297,0.143-1.001,0.319-1.893,0.319c-2.563,0-3.884-1.606-3.884-3.719
		c0-2.53,1.805-3.927,4.049-3.927c0.869,0,1.529,0.165,1.826,0.33l-0.352,1.32c-0.33-0.143-0.804-0.275-1.408-0.275
		c-1.32,0-2.354,0.803-2.354,2.453c0,1.485,0.88,2.42,2.365,2.42c0.517,0,1.067-0.099,1.408-0.242L37.65,20.383z"/>
	<path fill="#FFFFFF" d="M38.845,13.276c0.615-0.099,1.419-0.165,2.255-0.165c1.419,0,2.344,0.264,3.048,0.792
		c0.77,0.572,1.254,1.485,1.254,2.794c0,1.419-0.518,2.398-1.222,3.003c-0.78,0.649-1.979,0.958-3.433,0.958
		c-0.869,0-1.496-0.055-1.902-0.11V13.276z M40.517,19.316c0.143,0.033,0.385,0.033,0.583,0.033c1.529,0.011,2.53-0.825,2.53-2.597
		c0-1.54-0.902-2.354-2.354-2.354c-0.363,0-0.616,0.033-0.759,0.066V19.316z"/>
	<path fill="#FFFFFF" d="M46.556,13.265c0.539-0.088,1.331-0.154,2.232-0.154c1.101,0,1.871,0.165,2.398,0.583
		c0.451,0.352,0.693,0.88,0.693,1.563c0,0.935-0.671,1.584-1.31,1.815v0.033c0.518,0.209,0.804,0.693,0.99,1.375
		c0.231,0.847,0.451,1.815,0.595,2.101h-1.717c-0.109-0.22-0.297-0.814-0.506-1.727c-0.209-0.936-0.528-1.177-1.221-1.188h-0.495
		v2.916h-1.661V13.265z M48.217,16.456h0.66c0.836,0,1.331-0.418,1.331-1.067c0-0.671-0.462-1.023-1.232-1.023
		c-0.407,0-0.638,0.022-0.759,0.055V16.456z"/>
</g>
</svg>
