<svg xmlns="http://www.w3.org/2000/svg" width="200" height="241" fill="none" viewBox="0 0 200 241">
  <path fill="#FF9908" d="M139.67 49.25a20.648 20.648 0 0 1-20.62-20.63V0H26.91A26.91 26.91 0 0 0 0 26.91v162.22a26.908 26.908 0 0 0 26.91 26.91h110.6a26.917 26.917 0 0 0 24.871-16.61 26.905 26.905 0 0 0 2.049-10.3V49.25h-24.76Z" opacity="0.3"/>
  <path fill="#FF9908" d="M164.43 49.25h-24.76a20.648 20.648 0 0 1-20.62-20.63V0l45.38 49.25Zm19.51 121.36H58.9c-8.87 0-16.06 7.19-16.06 16.06v37.28c0 8.87 7.19 16.06 16.06 16.06h125.04c8.87 0 16.06-7.19 16.06-16.06v-37.28c0-8.87-7.19-16.06-16.06-16.06Z"/>
  <path fill="#fff" d="M103.79 213.38v7.27h-7.53v-7.27h7.53Zm22.42 1.78h-11.28l-1.87 5.49h-7.65l11-29.86h8.38l11 29.86h-7.74l-1.84-5.49Zm-1.88-5.53-3.74-11.06-3.78 11.06h7.52Zm21.57-19.05v30.07h-7.27v-30.07h7.27Z"/>
  <path fill="#FF9908" d="M76.07 114.08a2.868 2.868 0 0 1 .83-2.39 2.946 2.946 0 0 1 3.206-.638 2.947 2.947 0 0 1 1.816 2.718 2.943 2.943 0 0 1-1.96 2.773 2.875 2.875 0 0 1-1.292.137l-34.16 34.16 51-25s5.73-21.34 12.23-27.85l-13-13c-6.51 6.5-27.85 12.23-27.85 12.23l-25 51 34.18-34.14Zm46.448-23.674-20.174-20.174-9.892 9.893 20.174 20.173 9.892-9.892Z"/>
</svg>
