<svg xmlns="http://www.w3.org/2000/svg" width="201" height="240" fill="none" viewBox="0 0 201 240">
  <path fill="#FF9908" d="M140 49.24a20.649 20.649 0 0 1-20.63-20.62V0H27.2A26.91 26.91 0 0 0 .29 26.91v162.22A26.898 26.898 0 0 0 27.2 216h110.6a26.907 26.907 0 0 0 26.91-26.91V49.24H140Z" opacity="0.3"/>
  <path fill="#FF9908" d="M164.71 49.24H140a20.649 20.649 0 0 1-20.63-20.62V0l45.34 49.24Zm19.52 121.36H59.19c-8.87 0-16.06 7.19-16.06 16.06v37.28c0 8.87 7.19 16.06 16.06 16.06h125.04c8.87 0 16.06-7.19 16.06-16.06v-37.28c0-8.87-7.19-16.06-16.06-16.06Z"/>
  <path fill="#fff" d="M88 213.37v7.27h-7.53v-7.27H88Zm22.45 1.79H99.17l-1.87 5.48h-7.65l11-29.85H109l11 29.85h-7.74l-1.81-5.48Zm-1.88-5.53-3.74-11.06-3.78 11.06h7.52Zm19.91-19.06 7.36 22.63 7.36-22.63h7.8l-10.46 30.07h-9.4l-10.42-30.07h7.76Zm32.58 0v30.07h-7.27v-30.07h7.27Z"/>
  <path fill="#FF9908" d="M82.34 149.83a41.2 41.2 0 0 1-41.15-41.15 41.2 41.2 0 0 1 41.15-41.15 41.2 41.2 0 0 1 41.15 41.15 41.2 41.2 0 0 1-41.15 41.15Zm0-75.09a34 34 0 0 0-33.94 33.94 33.998 33.998 0 0 0 33.94 34 34 34 0 0 0 33.94-34 34.003 34.003 0 0 0-33.94-33.94Z"/>
  <path fill="#FF9908" d="m94.14 105.86-9.57-5.52a3.26 3.26 0 0 0-4.89 2.82v11.05a3.26 3.26 0 0 0 4.89 2.82l9.57-5.53a3.255 3.255 0 0 0 1.624-2.82 3.26 3.26 0 0 0-1.624-2.82Zm-19.37-6.38h-3.5a2.36 2.36 0 0 0-2.36 2.36v13.69a2.36 2.36 0 0 0 2.36 2.36h3.5a2.36 2.36 0 0 0 2.36-2.36v-13.69a2.36 2.36 0 0 0-2.36-2.36Z"/>
</svg>
