<svg xmlns="http://www.w3.org/2000/svg" width="201" height="240" fill="none" viewBox="0 0 201 240">
  <path fill="#A140FF" d="M140.53 49.24a20.64 20.64 0 0 1-20.63-20.62V0H27.77A26.91 26.91 0 0 0 .86 26.92v162.21a26.908 26.908 0 0 0 26.91 26.92h110.6a26.905 26.905 0 0 0 24.864-16.619 26.91 26.91 0 0 0 2.046-10.301V49.25l-24.75-.01Z" opacity="0.3"/>
  <path fill="#A140FF" d="M165.28 49.24h-24.75a20.64 20.64 0 0 1-20.63-20.62V0l45.38 49.24ZM184.8 170.6H59.76c-8.87 0-16.06 7.19-16.06 16.06v37.28c0 8.87 7.19 16.06 16.06 16.06H184.8c8.87 0 16.06-7.19 16.06-16.06v-37.28c0-8.87-7.19-16.06-16.06-16.06Z"/>
  <path fill="#fff" d="M79.46 213.37v7.28h-7.53v-7.28h7.53Zm26.14-5.57a7.225 7.225 0 0 1 1.59 4.64 7.495 7.495 0 0 1-2.57 6c-1.72 1.44-4.18 2.17-7.38 2.17h-14v-30.07h13.65c3.06 0 5.427.667 7.1 2a6.885 6.885 0 0 1 2.51 5.7 6.998 6.998 0 0 1-1.44 4.53 6.617 6.617 0 0 1-3.79 2.36 7.619 7.619 0 0 1 4.33 2.67Zm-15.08-4.93h4.76c2.527 0 3.79-1.08 3.79-3.24s-1.29-3.237-3.87-3.23h-4.68v6.47Zm9.23 8.55a3.18 3.18 0 0 0-1.06-2.53 4.5 4.5 0 0 0-3-.92h-5.15v6.76h5.19c2.68 0 4.02-1.103 4.02-3.31Zm45.08-20.63v29.86h-7.27V202l-6.46 18.68h-6.3l-6.51-18.72v18.72H111v-29.86h8.89l8.12 20.8 8-20.8 8.82-.03Zm12.3 19.31v10.55h-7.28v-30.07h11.78c3.58 0 6.303.883 8.17 2.65a9.434 9.434 0 0 1 2.81 7.17 9.839 9.839 0 0 1-1.26 5 8.577 8.577 0 0 1-3.72 3.44 13.009 13.009 0 0 1-6 1.26h-4.5Zm8.08-9.7c0-2.667-1.46-4-4.38-4h-3.7v7.83h3.7c2.92.027 4.38-1.25 4.38-3.83Z"/>
  <path fill="#A140FF" d="M105.16 146.41H61a16.327 16.327 0 0 1-16.31-16.31V85.93A16.33 16.33 0 0 1 61 69.62h44.17a16.321 16.321 0 0 1 16.3 16.31v44.17a16.322 16.322 0 0 1-16.31 16.31ZM61 76.83a9.11 9.11 0 0 0-9.1 9.1v44.17a9.11 9.11 0 0 0 9.1 9.1h44.17a9.107 9.107 0 0 0 9.09-9.1V85.93a9.111 9.111 0 0 0-9.09-9.1H61Z"/>
  <path fill="#A140FF" d="M117.86 121.7v8.4a12.708 12.708 0 0 1-12.7 12.7H61a12.712 12.712 0 0 1-12.71-12.7V116c7.08-1.52 17.85-2 30.92 3.22l8.1-7.72 5.52 14s1.48-5.15 6.26-4.42c4.78.73 12.52 3.32 15.83 1.11a4.26 4.26 0 0 1 2.94-.49Zm-15.47-26.75a4.91 4.91 0 1 0 0-9.82 4.91 4.91 0 0 0 0 9.82Z"/>
</svg>
