<svg xmlns="http://www.w3.org/2000/svg" width="201" height="240" fill="none" viewBox="0 0 201 240">
  <path fill="#3CBA32" d="M140.24 49.24a20.641 20.641 0 0 1-20.62-20.62V0H27.48A26.91 26.91 0 0 0 .57 26.92v162.21A26.91 26.91 0 0 0 27.48 216h110.61A26.911 26.911 0 0 0 165 189.12V49.24h-24.76Z" opacity="0.3"/>
  <path fill="#3CBA32" d="M165 49.24h-24.76a20.641 20.641 0 0 1-20.62-20.62V0L165 49.24Zm19.51 121.36H59.47c-8.87 0-16.06 7.19-16.06 16.06v37.28c0 8.87 7.19 16.06 16.06 16.06h125.04c8.87 0 16.06-7.19 16.06-16.06v-37.28c0-8.87-7.19-16.06-16.06-16.06Z"/>
  <path fill="#fff" d="M79.65 213.37v7.28h-7.53v-7.28h7.53Zm27.03-20.07a13.806 13.806 0 0 1 4.87 8.16h-7.7a6.999 6.999 0 0 0-2.62-3.27A7.316 7.316 0 0 0 97 197a6.373 6.373 0 0 0-5.14 2.34 9.39 9.39 0 0 0-2 6.25 9.3 9.3 0 0 0 2 6.23 6.386 6.386 0 0 0 5.14 2.32 7.315 7.315 0 0 0 4.19-1.19 7.129 7.129 0 0 0 2.62-3.23h7.7a13.908 13.908 0 0 1-4.87 8.14 14.626 14.626 0 0 1-9.51 3 15 15 0 0 1-7.7-1.93 13.094 13.094 0 0 1-5.12-5.43 16.94 16.94 0 0 1-1.81-8 16.94 16.94 0 0 1 1.81-7.95 13.094 13.094 0 0 1 5.12-5.43 15 15 0 0 1 7.7-1.93c3.45-.119 6.831.983 9.55 3.11Zm24.39 27.35-6.51-11.36h-1.66v11.36h-7.27v-30.07h12.42a13.422 13.422 0 0 1 6 1.23 8.523 8.523 0 0 1 3.7 3.38 9.7 9.7 0 0 1 1.23 4.91 8.78 8.78 0 0 1-1.8 5.58 9.228 9.228 0 0 1-5.26 3.14l7.15 11.83h-8Zm-8.17-16.34h4.51a4.57 4.57 0 0 0 3.19-1 3.705 3.705 0 0 0 1-2.83 3.74 3.74 0 0 0-1-2.81 4.361 4.361 0 0 0-3.17-1h-4.53v7.64Zm44.94 9.08a13.208 13.208 0 0 1-5.44 5.34 17.344 17.344 0 0 1-8.36 1.92h-11.36v-30.07H154a17.656 17.656 0 0 1 8.38 1.87 13.046 13.046 0 0 1 5.42 5.27 15.868 15.868 0 0 1 1.89 7.83 15.933 15.933 0 0 1-1.85 7.84Zm-7.83-1.51a8.302 8.302 0 0 0 2.36-6.33 8.336 8.336 0 0 0-2.36-6.34 9.19 9.19 0 0 0-6.61-2.25H150v17.18h3.45a9.16 9.16 0 0 0 6.55-2.26h.01Z"/>
  <path fill="#3CBA32" d="M82.52 62s23.48 5 1.73 78.49h-3S60.35 72.8 82.52 62Z"/>
  <path fill="#3CBA32" d="M87.71 62.72s32.84 12.39-1.58 77.34c0 0 51.99-63.37 1.58-77.34Z"/>
  <path fill="#3CBA32" d="M101.39 67.19s31.54 15.69-11.23 70.42c0 0 49.11-52.85 11.23-70.42Zm-23.53-4.47s-32.84 12.39 1.58 77.34c0 0-51.99-63.37-1.58-77.34Z"/>
  <path fill="#3CBA32" d="M64.18 67.19s-31.54 15.69 11.23 70.42c0 0-49.11-52.85-11.23-70.42Zm23.01 86.84h-8.46l-2.54-8.07h13.54l-2.54 8.07Z"/>
</svg>
