<svg xmlns="http://www.w3.org/2000/svg" width="201" height="241" fill="none" viewBox="0 0 201 241">
  <path fill="#A140FF" d="M140.53 49.25a20.65 20.65 0 0 1-20.63-20.63V0H27.77A26.91 26.91 0 0 0 .86 26.91v162.22a26.908 26.908 0 0 0 26.91 26.91h110.6a26.907 26.907 0 0 0 26.91-26.91V49.25h-24.75Z" opacity="0.3"/>
  <path fill="#A140FF" d="M165.28 49.25h-24.75a20.65 20.65 0 0 1-20.63-20.63V0l45.38 49.25Zm19.52 121.36H59.76c-8.87 0-16.06 7.19-16.06 16.06v37.28c0 8.87 7.19 16.06 16.06 16.06H184.8c8.87 0 16.06-7.19 16.06-16.06v-37.28c0-8.87-7.19-16.06-16.06-16.06Z"/>
  <path fill="#fff" d="M90 213.38v7.27h-7.53v-7.27H90Zm29 .02a13.184 13.184 0 0 1-5.44 5.33 17.319 17.319 0 0 1-8.36 1.92H93.8v-30.07h11.35a17.633 17.633 0 0 1 8.38 1.87 13.106 13.106 0 0 1 5.42 5.27 15.872 15.872 0 0 1 1.9 7.83 15.996 15.996 0 0 1-1.85 7.85Zm-7.82-1.51a8.387 8.387 0 0 0 2.36-6.34 8.385 8.385 0 0 0-2.36-6.34 9.221 9.221 0 0 0-6.62-2.25h-3.44v17.18h3.44a9.217 9.217 0 0 0 6.57-2.25h.05Zm21.06 3.19h9.7v5.57h-17v-30.07h7.27l.03 24.5Zm20.33 0h9.7v5.57h-17v-30.07h7.27l.03 24.5Z"/>
  <path fill="#A140FF" d="M69.24 159.4a4.301 4.301 0 0 1-4.3-4.3v-6.61a4.29 4.29 0 0 1 4.3-4.29 4.288 4.288 0 0 1 4.29 4.29v6.61a4.3 4.3 0 0 1-4.29 4.3Zm0-53.3a4.297 4.297 0 0 1-3.972-2.646 4.29 4.29 0 0 1-.328-1.644v-7.69a4.3 4.3 0 0 1 4.3-4.3 4.3 4.3 0 0 1 4.29 4.3v7.69a4.291 4.291 0 0 1-4.29 4.29Zm15.25 49.22a4.323 4.323 0 0 1-3.73-2.15l-3.2-5.56a4.3 4.3 0 0 1 1.57-5.87 4.304 4.304 0 0 1 5.87 1.58l3.21 5.55a4.3 4.3 0 0 1-1.58 5.87 4.257 4.257 0 0 1-2.14.58Zm-26.55-46a4.304 4.304 0 0 1-3.73-2.15l-3.93-6.82a4.278 4.278 0 0 1 1.57-5.86 4.29 4.29 0 0 1 5.87 1.57l3.93 6.82a4.292 4.292 0 0 1-1.57 5.87c-.65.375-1.39.571-2.14.57Zm37.71 34.83a4.317 4.317 0 0 1-2.15-.58l-5.56-3.21a4.29 4.29 0 0 1-1.57-5.86 4.297 4.297 0 0 1 5.87-1.58l5.56 3.21a4.301 4.301 0 0 1 0 7.446 4.29 4.29 0 0 1-2.15.574ZM49.64 117.6a4.302 4.302 0 0 1-2.14-.58l-6.82-3.93a4.301 4.301 0 0 1 4.3-7.45l6.82 3.94a4.301 4.301 0 0 1-.006 7.445 4.296 4.296 0 0 1-2.154.575Zm50.09 11.31h-6.62a4.31 4.31 0 0 1-4.3-4.3 4.299 4.299 0 0 1 4.3-4.29h6.62a4.3 4.3 0 0 1 4.3 4.29 4.315 4.315 0 0 1-1.262 3.038 4.315 4.315 0 0 1-3.038 1.262Zm-53.3 0h-7.68a4.31 4.31 0 0 1-4.3-4.3 4.299 4.299 0 0 1 4.3-4.29h7.68a4.289 4.289 0 0 1 4.29 4.29 4.299 4.299 0 0 1-4.29 4.3Zm43.19-11.77a4.296 4.296 0 0 1-4.154-5.408 4.285 4.285 0 0 1 2.004-2.602l6-3.49a4.3 4.3 0 0 1 5.87 1.58 4.299 4.299 0 0 1-1.57 5.87l-6 3.48a4.236 4.236 0 0 1-2.15.57Zm-46.79 27.01a4.308 4.308 0 0 1-3.72-2.15 4.3 4.3 0 0 1 1.57-5.87l6.36-3.67a4.309 4.309 0 0 1 5.87 1.57 4.3 4.3 0 0 1-1.57 5.87l-6.36 3.67a4.317 4.317 0 0 1-2.15.58Z"/>
  <path fill="#A140FF" d="M69.77 152.79h-.69a27.327 27.327 0 0 1-13.88-4.14 27.712 27.712 0 0 1-9.8-10.42 27.808 27.808 0 0 1-3.28-13.07v-.69a27.643 27.643 0 0 1 3.82-13.34 27.713 27.713 0 0 1 9.8-9.8 27.71 27.71 0 0 1 13.39-3.81h.63a27.512 27.512 0 0 1 13.08 3.29 27.611 27.611 0 0 1 10.41 9.78 27.432 27.432 0 0 1 4.14 13.94v.63a27.608 27.608 0 0 1-3.59 13.62 27.54 27.54 0 0 1-10.42 10.43 27.623 27.623 0 0 1-13.61 3.58Zm-.11-46.69h-.27a19.077 19.077 0 0 0-9.27 2.62 19.147 19.147 0 0 0-6.77 6.76 19.067 19.067 0 0 0-2.63 9.23v.44a19.15 19.15 0 0 0 2.25 9 19.112 19.112 0 0 0 6.77 7.2 18.995 18.995 0 0 0 9.59 2.85h.44a18.994 18.994 0 0 0 9.39-2.47 19.003 19.003 0 0 0 7.19-7.2 19 19 0 0 0 2.47-9.38v-.38a19.21 19.21 0 0 0-2.85-9.66 19.163 19.163 0 0 0-7.19-6.75 19.333 19.333 0 0 0-9.12-2.26Z"/>
  <path fill="#A140FF" d="M80.8 108.87a4.265 4.265 0 0 1-2.14-.57 4.292 4.292 0 0 1-1.57-5.87l3.67-6.37a4.29 4.29 0 0 1 5.87-1.57 4.29 4.29 0 0 1 1.58 5.86l-3.68 6.37a4.295 4.295 0 0 1-3.73 2.15ZM54 155.32a4.257 4.257 0 0 1-2.14-.58 4.29 4.29 0 0 1-1.57-5.87l3.47-6a4.297 4.297 0 0 1 2.61-2.003 4.294 4.294 0 0 1 5.26 3.043 4.3 4.3 0 0 1-.43 3.26l-3.47 6a4.302 4.302 0 0 1-3.73 2.15Zm54.84-54.66a2.622 2.622 0 0 1-2.62-2.62v-4a2.606 2.606 0 0 1 1.618-2.414 2.61 2.61 0 0 1 1.002-.196 2.612 2.612 0 0 1 2.61 2.61v4a2.608 2.608 0 0 1-2.61 2.62Zm0-32.43a2.61 2.61 0 0 1-2.62-2.61v-4.68a2.62 2.62 0 0 1 3.621-2.42 2.607 2.607 0 0 1 1.609 2.42v4.68a2.612 2.612 0 0 1-2.61 2.61Zm9.28 29.94a2.62 2.62 0 0 1-2.27-1.3l-1.95-3.38a2.631 2.631 0 0 1 1-3.58 2.623 2.623 0 0 1 2.905.223c.27.213.496.477.665.777l2 3.38a2.615 2.615 0 0 1 .24 1.992 2.618 2.618 0 0 1-1.24 1.578 2.57 2.57 0 0 1-1.35.31ZM102 70.19a2.629 2.629 0 0 1-2.27-1.31l-2.39-4.15a2.62 2.62 0 0 1 1-3.57 2.61 2.61 0 0 1 3.57 1l2.39 4.15a2.615 2.615 0 0 1 .24 1.992 2.62 2.62 0 0 1-1.24 1.578 2.67 2.67 0 0 1-1.3.31Zm22.91 21.19a2.581 2.581 0 0 1-1.31-.35l-3.38-2a2.626 2.626 0 0 1-1.24-1.578 2.616 2.616 0 0 1 .24-1.992 2.611 2.611 0 0 1 3.57-1l3.38 2a2.62 2.62 0 0 1 1.244 1.577 2.607 2.607 0 0 1-.244 1.993 2.6 2.6 0 0 1-2.26 1.35ZM96.92 75.22a2.579 2.579 0 0 1-1.31-.35l-4.15-2.39a2.619 2.619 0 0 1-1-3.57 2.63 2.63 0 0 1 3.58-1l4.14 2.39a2.63 2.63 0 0 1 1 3.58 2.609 2.609 0 0 1-2.26 1.34Zm30.47 6.89h-4a2.607 2.607 0 0 1-2.414-1.618 2.608 2.608 0 0 1-.196-1.002 2.612 2.612 0 0 1 2.61-2.61h4a2.61 2.61 0 0 1 2.62 2.61 2.621 2.621 0 0 1-2.62 2.62Zm-32.39 0h-4.68a2.61 2.61 0 0 1-2.61-2.62 2.61 2.61 0 0 1 2.61-2.61H95a2.61 2.61 0 0 1 2.61 2.61A2.61 2.61 0 0 1 95 82.11ZM121.24 75a2.63 2.63 0 0 1-2.27-1.31 2.616 2.616 0 0 1 .223-2.905 2.64 2.64 0 0 1 .777-.665l3.67-2.12a2.619 2.619 0 0 1 3.57 1 2.6 2.6 0 0 1 .244 1.993 2.619 2.619 0 0 1-1.244 1.577l-3.67 2.12c-.4.212-.847.319-1.3.31ZM92.77 91.38a2.601 2.601 0 0 1-2.26-1.31 2.598 2.598 0 0 1 .95-3.57l3.87-2.23a2.608 2.608 0 0 1 3.57 1 2.62 2.62 0 0 1-1 3.57l-3.86 2.24a2.631 2.631 0 0 1-1.27.3Z"/>
  <path fill="#A140FF" d="M109.16 96.64h-.43a16.571 16.571 0 0 1-8.43-2.52 16.83 16.83 0 0 1-6-6.34 16.939 16.939 0 0 1-2-8v-.43c.073-2.858.875-5.65 2.33-8.11a16.849 16.849 0 0 1 6-6 16.897 16.897 0 0 1 8.15-2.32h.38a16.792 16.792 0 0 1 8 2 16.838 16.838 0 0 1 6.34 6 16.855 16.855 0 0 1 2.52 8.48v.39a16.769 16.769 0 0 1-2.18 8.28 16.762 16.762 0 0 1-6.35 6.35 16.78 16.78 0 0 1-8.33 2.22Zm-.07-28.41h-.15a11.522 11.522 0 0 0-5.65 1.59 11.61 11.61 0 0 0-5.72 9.73v.27a11.62 11.62 0 0 0 1.37 5.48 11.61 11.61 0 0 0 9.95 6.11h.27a11.59 11.59 0 0 0 5.71-1.5 11.596 11.596 0 0 0 4.38-4.38 11.645 11.645 0 0 0 1.5-5.71v-.24a11.685 11.685 0 0 0-1.73-5.87 11.684 11.684 0 0 0-4.38-4.11 11.69 11.69 0 0 0-5.55-1.37Z"/>
  <path fill="#A140FF" d="M115.87 69.91a2.57 2.57 0 0 1-1.3-.35 2.625 2.625 0 0 1-1.318-2.598c.041-.342.149-.672.318-.972l2.24-3.87a2.624 2.624 0 0 1 4.888 1.598 2.616 2.616 0 0 1-.318.972l-2.24 3.88a2.597 2.597 0 0 1-2.27 1.34ZM99.56 98.17a2.57 2.57 0 0 1-1.3-.35 2.621 2.621 0 0 1-1-3.57l2.11-3.66a2.625 2.625 0 0 1 1.578-1.24 2.62 2.62 0 0 1 3.232 1.818 2.621 2.621 0 0 1-.24 1.992l-2.11 3.67a2.638 2.638 0 0 1-2.27 1.34Z"/>
</svg>
