<svg xmlns="http://www.w3.org/2000/svg" width="201" height="240" fill="none" viewBox="0 0 201 240">
  <path fill="#005FAD" d="M140 49.24a20.64 20.64 0 0 1-20.63-20.62V0H27.2A26.91 26.91 0 0 0 .29 26.92v162.21A26.91 26.91 0 0 0 27.2 216h110.6a26.905 26.905 0 0 0 24.865-16.619 26.928 26.928 0 0 0 2.045-10.301V49.2l-24.71.04Z" opacity="0.3"/>
  <path fill="#005FAD" d="M164.71 49.24H140a20.64 20.64 0 0 1-20.63-20.62V0l45.34 49.24Zm-40.93 37.1h-89a3.23 3.23 0 1 1 0-6.46h89a3.225 3.225 0 0 1 2.978 1.995c.161.391.243.811.242 1.235a3.229 3.229 0 0 1-3.22 3.23Zm60.45 84.26H59.19c-8.87 0-16.06 7.19-16.06 16.06v37.28c0 8.87 7.19 16.06 16.06 16.06h125.04c8.87 0 16.06-7.19 16.06-16.06v-37.28c0-8.87-7.19-16.06-16.06-16.06Z"/>
  <path fill="#fff" d="M71 213.37v7.28h-7.53v-7.28H71Zm29 .02a13.211 13.211 0 0 1-5.44 5.34 17.344 17.344 0 0 1-8.36 1.92H74.8v-30.07h11.36a17.657 17.657 0 0 1 8.38 1.87 13.047 13.047 0 0 1 5.42 5.27 15.868 15.868 0 0 1 1.89 7.83 15.933 15.933 0 0 1-1.85 7.84Zm-7.83-1.51a8.312 8.312 0 0 0 2.37-6.33 8.334 8.334 0 0 0-2.37-6.34 9.181 9.181 0 0 0-6.61-2.25h-3.44v17.18h3.44a9.138 9.138 0 0 0 6.57-2.26h.04Zm54.68-21.3-7.18 30.07h-9l-4.81-20.12-4.85 20.12h-9l-7.19-30.07h7.91l3.87 21.77 5.27-21.77h8l5.27 21.77 3.91-21.77h7.8Zm27.22 2.42a11.772 11.772 0 0 1 4.55 7.49h-7.69a5.872 5.872 0 0 0-2.34-2.57 7.14 7.14 0 0 0-3.79-1 7.062 7.062 0 0 0-5.53 2.32 9.003 9.003 0 0 0-2.08 6.27c0 2.86.73 5.057 2.19 6.59a8.21 8.21 0 0 0 6.23 2.3 7.515 7.515 0 0 0 4.55-1.43 7.547 7.547 0 0 0 2.76-4.06h-9.18v-5.23H179v7.19a14.78 14.78 0 0 1-2.72 4.89 14.16 14.16 0 0 1-4.79 3.66 15.227 15.227 0 0 1-6.66 1.4c-2.79.074-5.55-.592-8-1.93a13.21 13.21 0 0 1-5.25-5.43 16.598 16.598 0 0 1-1.85-8 16.592 16.592 0 0 1 1.85-7.95 13.228 13.228 0 0 1 5.23-5.43 15.594 15.594 0 0 1 7.89-1.93 14.998 14.998 0 0 1 9.37 2.85Z"/>
  <path fill="#005FAD" d="M100.81 58.17v89a3.225 3.225 0 0 1-.943 2.287 3.226 3.226 0 0 1-5.507-2.287v-89a3.23 3.23 0 0 1 3.22-3.23 3.23 3.23 0 0 1 3.23 3.23Z"/>
  <path fill="#005FAD" d="M108.1 72.36H87.49v20.61h20.61V72.36Z"/>
</svg>
