<svg xmlns="http://www.w3.org/2000/svg" width="201" height="240" fill="none" viewBox="0 0 201 240">
  <path fill="#FF9908" d="M140.38 49.24a20.641 20.641 0 0 1-20.62-20.62V0H27.63A26.92 26.92 0 0 0 .71 26.92v162.21a26.921 26.921 0 0 0 26.92 26.92h110.6a26.905 26.905 0 0 0 24.864-16.619 26.91 26.91 0 0 0 2.046-10.301V49.25l-24.76-.01Z" opacity="0.3"/>
  <path fill="#FF9908" d="M165.14 49.24h-24.76a20.641 20.641 0 0 1-20.62-20.62V0l45.38 49.24Zm19.52 121.36H59.62c-8.87 0-16.06 7.19-16.06 16.06v37.28c0 8.87 7.19 16.06 16.06 16.06h125.04c8.87 0 16.06-7.19 16.06-16.06v-37.28c0-8.87-7.19-16.06-16.06-16.06Z"/>
  <path fill="#fff" d="M88 213.37v7.28h-7.53v-7.28H88Zm11.05-17.01v6.29h10.16v5.49H99.05v6.68h11.44v5.83H91.77v-30.07h18.72v5.78H99.05Zm22.84 13.74v10.55h-7.28v-30.07h11.78c3.58 0 6.303.883 8.17 2.65a9.434 9.434 0 0 1 2.81 7.17 9.849 9.849 0 0 1-1.26 5 8.577 8.577 0 0 1-3.72 3.44 13.009 13.009 0 0 1-6 1.26h-4.5Zm8.08-9.7c0-2.667-1.46-4-4.38-4h-3.7v7.83h3.7c2.94.027 4.41-1.25 4.41-3.83h-.03Zm31.36 16.16a8.434 8.434 0 0 1-3.57 3.19 12.496 12.496 0 0 1-5.72 1.19 13.532 13.532 0 0 1-8.34-2.46 9.004 9.004 0 0 1-3.57-6.89h7.74a4.169 4.169 0 0 0 1.21 2.68 3.76 3.76 0 0 0 2.66 1 3.06 3.06 0 0 0 2.21-.76 2.659 2.659 0 0 0 .81-2 2.664 2.664 0 0 0-.74-1.92 5.739 5.739 0 0 0-1.85-1.25c-.74-.327-1.76-.717-3.06-1.17a37.098 37.098 0 0 1-4.66-1.89 8.58 8.58 0 0 1-3.11-2.73 7.898 7.898 0 0 1-1.29-4.7 7.882 7.882 0 0 1 1.36-4.63 8.606 8.606 0 0 1 3.76-3 13.819 13.819 0 0 1 5.51-1 12.33 12.33 0 0 1 8 2.38A8.992 8.992 0 0 1 162 199h-7.87a4.004 4.004 0 0 0-1.08-2.36 3.186 3.186 0 0 0-2.36-.87 2.999 2.999 0 0 0-2.06.68 2.492 2.492 0 0 0-.79 2 2.494 2.494 0 0 0 .7 1.8 5.45 5.45 0 0 0 1.77 1.22c.71.31 1.73.71 3.06 1.19a33.083 33.083 0 0 1 4.72 1.93 9.073 9.073 0 0 1 3.15 2.79 8.003 8.003 0 0 1 1.32 4.76 8.268 8.268 0 0 1-1.23 4.42Z"/>
  <path fill="#FF9908" d="M123.74 127.73h-2.49a38.108 38.108 0 0 0-38.07-38.06 38.101 38.101 0 0 0-38.06 38.06h-2.49a40.6 40.6 0 0 1 40.55-40.55 40.6 40.6 0 0 1 40.56 40.55Z"/>
  <path fill="#FF9908" d="M140.81 87.18H25.55v2.49h115.26v-2.49Zm-92.95 36.57h-7.97v7.97h7.97v-7.97Zm78.62 0h-7.97v7.97h7.97v-7.97Z"/>
  <path fill="#FF9908" d="M87.17 84.31H79.2v7.97h7.97v-7.97Zm-61.75 7.98a3.99 3.99 0 1 0 0-7.98 3.99 3.99 0 0 0 0 7.98Zm115.01 0a3.99 3.99 0 1 0 0-7.98 3.99 3.99 0 0 0 0 7.98Z"/>
</svg>
