<svg xmlns="http://www.w3.org/2000/svg" width="201" height="241" fill="none" viewBox="0 0 201 241">
  <path fill="#0072FF" d="M140 49.25a20.65 20.65 0 0 1-20.63-20.63V0H27.2A26.91 26.91 0 0 0 .29 26.91v162.22A26.91 26.91 0 0 0 27.2 216h110.6a26.907 26.907 0 0 0 26.91-26.91V49.21l-24.71.04Z" opacity="0.3"/>
  <path fill="#0072FF" d="M164.71 49.25H140a20.65 20.65 0 0 1-20.63-20.63V0l45.34 49.25Zm19.52 121.36H59.19c-8.87 0-16.06 7.19-16.06 16.06v37.28c0 8.87 7.19 16.06 16.06 16.06h125.04c8.87 0 16.06-7.19 16.06-16.06v-37.28c0-8.87-7.19-16.06-16.06-16.06Z"/>
  <path fill="#fff" d="M87.48 213.38v7.27H80v-7.27h7.48Zm11.06-17.02v6.3h10.16v5.48H98.54v6.68H110v5.83H91.28v-30.07H110v5.78H98.54Zm33.81 24.29-6.34-9.36-5.44 9.36h-8.34l9.61-15.48-9.91-14.59h8.64l6.16 9.06 5.32-9.06h8.3l-9.49 15.14 10.12 14.93h-8.63Zm18.71-24.29v6.3h10.17v5.48h-10.17v6.68h11.44v5.83h-18.71v-30.07h18.71v5.78h-11.44Z"/>
  <path fill="#0072FF" d="M82.5 147.71a4.301 4.301 0 0 1-4.3-4.3v-6.61a4.287 4.287 0 0 1 2.655-3.966 4.297 4.297 0 0 1 1.645-.324 4.291 4.291 0 0 1 4.29 4.29v6.61a4.3 4.3 0 0 1-4.29 4.3Zm0-53.29a4.3 4.3 0 0 1-4.3-4.3v-7.69a4.3 4.3 0 0 1 4.3-4.3 4.3 4.3 0 0 1 4.29 4.3v7.69a4.3 4.3 0 0 1-4.29 4.3Zm15.25 49.21a4.295 4.295 0 0 1-3.73-2.15l-3.2-5.56a4.29 4.29 0 0 1 1.57-5.86 4.294 4.294 0 0 1 5.87 1.57l3.2 5.55a4.299 4.299 0 0 1-1.57 5.87 4.303 4.303 0 0 1-2.14.58Zm-26.55-46a4.3 4.3 0 0 1-3.73-2.15l-3.94-6.81a4.3 4.3 0 0 1 7.45-4.3l3.93 6.82a4.3 4.3 0 0 1-1.57 5.87 4.29 4.29 0 0 1-2.14.57Zm37.7 34.83a4.285 4.285 0 0 1-2.14-.57l-5.56-3.21a4.301 4.301 0 0 1 4.3-7.45l5.56 3.21a4.3 4.3 0 0 1-2.16 8.02Zm-46-26.55a4.28 4.28 0 0 1-2.14-.58l-6.82-3.93a4.3 4.3 0 0 1 1.04-7.873 4.288 4.288 0 0 1 3.26.433l6.82 3.93a4.31 4.31 0 0 1 1.57 5.87 4.295 4.295 0 0 1-3.73 2.15Zm50.1 11.31h-6.62a4.304 4.304 0 0 1-3.041-1.259 4.304 4.304 0 0 1-1.259-3.041 4.3 4.3 0 0 1 4.3-4.29H113a4.3 4.3 0 0 1 4.3 4.29c0 1.14-.453 2.234-1.259 3.041A4.304 4.304 0 0 1 113 117.22Zm-53.32 0H52a4.301 4.301 0 0 1-4.3-4.3 4.299 4.299 0 0 1 4.3-4.29h7.67a4.296 4.296 0 0 1 3.972 2.646 4.29 4.29 0 0 1 .328 1.644 4.293 4.293 0 0 1-2.646 3.972 4.276 4.276 0 0 1-1.644.328Zm43.2-11.77a4.307 4.307 0 0 1-3.73-2.14 4.3 4.3 0 0 1 1.58-5.87l6-3.48a4.3 4.3 0 0 1 5.87 1.57 4.298 4.298 0 0 1-1.57 5.87l-6 3.48a4.27 4.27 0 0 1-2.15.57Zm-46.79 27.01a4.28 4.28 0 0 1-3.72-2.15 4.3 4.3 0 0 1 1.57-5.87l6.36-3.67a4.308 4.308 0 0 1 5.87 1.57 4.3 4.3 0 0 1-1.58 5.87l-6.35 3.67a4.21 4.21 0 0 1-2.15.58Z"/>
  <path fill="#0072FF" d="M83 141.11h-.69a27.438 27.438 0 0 1-13.88-4.15 27.712 27.712 0 0 1-9.8-10.42 27.809 27.809 0 0 1-3.28-13.07v-.69a27.639 27.639 0 0 1 3.82-13.34 27.71 27.71 0 0 1 9.8-9.8 27.71 27.71 0 0 1 13.39-3.81h.63a27.53 27.53 0 0 1 13.08 3.29 27.608 27.608 0 0 1 10.41 9.78 27.516 27.516 0 0 1 4.14 13.94v.63a27.61 27.61 0 0 1-3.59 13.62 27.538 27.538 0 0 1-10.42 10.43A27.629 27.629 0 0 1 83 141.11Zm-.11-46.7h-.27a19.16 19.16 0 0 0-9.28 2.63 19.172 19.172 0 0 0-6.76 6.75A19 19 0 0 0 64 113v.44a18.999 18.999 0 0 0 2.26 9 19.077 19.077 0 0 0 6.76 7.2 19 19 0 0 0 9.6 2.85h.44a18.994 18.994 0 0 0 9.39-2.47 19.003 19.003 0 0 0 7.19-7.2 19 19 0 0 0 2.47-9.38v-.38a19.155 19.155 0 0 0-2.86-9.66 18.998 18.998 0 0 0-16.33-8.99h-.03Z"/>
  <path fill="#0072FF" d="M94.06 97.18a4.288 4.288 0 0 1-3.71-6.44l3.67-6.37a4.29 4.29 0 0 1 5.87-1.57 4.297 4.297 0 0 1 2.003 2.61 4.294 4.294 0 0 1-.433 3.26l-3.67 6.36a4.3 4.3 0 0 1-3.73 2.15Zm-26.81 46.45a4.257 4.257 0 0 1-2.14-.58 4.299 4.299 0 0 1-1.58-5.87l3.48-6a4.298 4.298 0 0 1 7.44 4.3l-3.47 6a4.296 4.296 0 0 1-3.73 2.15Z"/>
</svg>
