<svg xmlns="http://www.w3.org/2000/svg" width="201" height="240" fill="none" viewBox="0 0 201 240">
  <path fill="#FF3E4C" d="M140.38 49.24a20.641 20.641 0 0 1-20.62-20.62V0H27.63A26.91 26.91 0 0 0 .71 26.91v162.22A26.91 26.91 0 0 0 27.63 216h110.6a26.916 26.916 0 0 0 19.028-7.882 26.919 26.919 0 0 0 7.882-19.028V49.24h-24.76Z" opacity="0.3"/>
  <path fill="#FF3E4C" d="M165.14 49.24h-24.76a20.641 20.641 0 0 1-20.62-20.62V0l45.38 49.24Zm19.52 121.36H59.62c-8.87 0-16.06 7.19-16.06 16.06v37.28c0 8.87 7.19 16.06 16.06 16.06h125.04c8.87 0 16.06-7.19 16.06-16.06v-37.28c0-8.87-7.19-16.06-16.06-16.06Z"/>
  <path fill="#fff" d="M88.09 213.37v7.27h-7.52v-7.27h7.52Zm23.4-22.8v5.79H99.15V203h9.53v5.53h-9.53v12.16h-7.27v-30.07l19.61-.05Zm11.01 24.5h9.7v5.57h-17v-30.07h7.27l.03 24.5Zm18.67-24.5 7.36 22.63 7.36-22.63h7.78l-10.46 30.07h-9.4l-10.42-30.07h7.78Z"/>
  <path fill="#FF3E4C" d="M120.16 131.91V84.2a3.802 3.802 0 0 0-.06-.69 1.668 1.668 0 0 1 0-.2c0-.16-.09-.31-.14-.46l-.09-.2a4.19 4.19 0 0 0-.23-.42.848.848 0 0 0-.1-.16 4.076 4.076 0 0 0-.41-.51l-.08-.06a3.037 3.037 0 0 0-.43-.36l-.17-.11c-.13-.08-.27-.15-.41-.22l-.2-.09a4.03 4.03 0 0 0-.49-.15h-.16a3.12 3.12 0 0 0-.69-.07H49.1a3.73 3.73 0 0 0-3.39 3.71 1.004 1.004 0 0 0 0 .17v47.68a2.59 2.59 0 0 0 .55 1.7 3.723 3.723 0 0 0 3.19 1.82h67a3.748 3.748 0 0 0 3.71-3.67ZM49.67 89.48v-7.24h5.89v7.24h-5.89Zm9.94 0v-7.24h5.89v7.24h-5.89Zm9.94 0v-7.24h5.89v7.24h-5.89Zm9.94 0v-7.24h5.89v7.24h-5.89Zm9.94 0v-7.24h5.89v7.24h-5.89Zm9.93 0v-7.24h5.89v7.24h-5.89Zm9.94 0v-7.24h5.89v7.24h-5.89Zm-61 35.11V91.44h69.22v33.15H48.3Zm1.35 9.19v-7.24h5.89v7.24h-5.89Zm9.94 0v-7.24h5.89v7.24h-5.89Zm9.94 0v-7.24h5.89v7.24h-5.89Zm9.94 0v-7.24h5.89v7.24h-5.89Zm9.94 0v-7.24h5.89v7.24h-5.89Zm9.93 0v-7.24h5.89v7.24h-5.89Zm9.94 0v-7.24h5.89v7.24h-5.89Z"/>
  <path fill="#FF3E4C" d="m90.94 105.56-9.57-5.53a3.26 3.26 0 0 0-4.89 2.82v11.06a3.259 3.259 0 0 0 4.89 2.82l9.57-5.53a3.263 3.263 0 0 0 1.624-2.82 3.26 3.26 0 0 0-1.624-2.82Z"/>
</svg>
