<svg xmlns="http://www.w3.org/2000/svg" width="201" height="240" fill="none" viewBox="0 0 201 240">
  <path fill="#FF9908" d="M139.81 49.24a20.641 20.641 0 0 1-20.62-20.62V0H27.06A26.91 26.91 0 0 0 .14 26.91v162.22A26.91 26.91 0 0 0 27.06 216h110.6a26.907 26.907 0 0 0 26.91-26.91V49.24h-24.76Z" opacity="0.3"/>
  <path fill="#FF9908" d="M164.57 49.24h-24.76a20.641 20.641 0 0 1-20.62-20.62V0l45.38 49.24Zm19.52 121.36H59.05c-8.87 0-16.06 7.19-16.06 16.06v37.28c0 8.87 7.19 16.06 16.06 16.06h125.04c8.87 0 16.06-7.19 16.06-16.06v-37.28c0-8.87-7.19-16.06-16.06-16.06Z"/>
  <path fill="#fff" d="M90.6 213.37v7.27h-7.53v-7.27h7.53ZM117.78 193a11.74 11.74 0 0 1 4.55 7.49h-7.7a5.942 5.942 0 0 0-2.34-2.58 7.115 7.115 0 0 0-3.78-1 7.074 7.074 0 0 0-5.53 2.31 9.049 9.049 0 0 0-2.09 6.28c0 2.86.73 5.057 2.19 6.59a8.209 8.209 0 0 0 6.24 2.3 7.545 7.545 0 0 0 4.55-1.43 7.61 7.61 0 0 0 2.76-4.06h-9.19v-5.23h15.27V211a14.634 14.634 0 0 1-2.72 4.89 14.125 14.125 0 0 1-4.78 3.66 15.255 15.255 0 0 1-6.66 1.4 15.787 15.787 0 0 1-8-1.94 13.27 13.27 0 0 1-5.26-5.42 16.74 16.74 0 0 1-1.85-7.95 16.778 16.778 0 0 1 1.85-8 13.338 13.338 0 0 1 5.24-5.42 15.594 15.594 0 0 1 7.89-1.93c3.335-.164 6.629.79 9.36 2.71Zm16.29-2.43v30.07h-7.27v-30.07h7.27Zm24.63 0v5.79h-12.34V203h9.53v5.53h-9.53v12.16h-7.27v-30.07l19.61-.05Z"/>
  <path fill="#FF9908" d="M77.78 154.43a41.2 41.2 0 0 1-41.15-41.15 41.2 41.2 0 0 1 41.15-41.15 41.2 41.2 0 0 1 41.15 41.15 41.2 41.2 0 0 1-41.15 41.15Zm0-75.09a34 34 0 0 0-33.94 33.94 34 34 0 0 0 33.94 33.94 34.004 34.004 0 0 0 23.982-9.958 34.003 34.003 0 0 0 9.958-23.982 34.002 34.002 0 0 0-33.94-33.94Z"/>
  <path fill="#FF9908" d="M77.78 136.34A28.544 28.544 0 0 1 54 123.65l6-4a21.343 21.343 0 0 0 17.76 9.49 21.324 21.324 0 0 0 17.76-9.5l6 4a28.534 28.534 0 0 1-23.74 12.7Zm-11.41-29.37a4.79 4.79 0 1 0 0-9.58 4.79 4.79 0 0 0 0 9.58Zm22.82 0a4.79 4.79 0 1 0 0-9.58 4.79 4.79 0 0 0 0 9.58Z"/>
</svg>
