<svg xmlns="http://www.w3.org/2000/svg" width="629" height="1270" fill="none" viewBox="0 0 629 1270">
  <path fill="#00C650" d="M568.67 1079.24a20.648 20.648 0 0 1-14.575-6.05 20.612 20.612 0 0 1-6.045-14.57V1030h-92.14a26.89 26.89 0 0 0-19.025 7.88A26.892 26.892 0 0 0 429 1056.9v162.22a26.91 26.91 0 0 0 26.91 26.88h110.6c3.535 0 7.035-.69 10.301-2.05a26.86 26.86 0 0 0 8.734-5.83c2.5-2.5 4.483-5.46 5.836-8.73a26.942 26.942 0 0 0 2.049-10.3v-139.85h-24.76Z" opacity="0.3"/>
  <path fill="#00C650" d="M593.43 1079.24h-24.76a20.648 20.648 0 0 1-14.575-6.05 20.612 20.612 0 0 1-6.045-14.57V1030l45.38 49.24Zm19.51 121.36H487.9c-8.87 0-16.06 7.19-16.06 16.06v37.28c0 8.87 7.19 16.06 16.06 16.06h125.04c8.87 0 16.06-7.19 16.06-16.06v-37.28c0-8.87-7.19-16.06-16.06-16.06Z"/>
  <path fill="#fff" d="M497 1243.37v7.27h-7.53v-7.27H497Zm29.82-22.8v30.07h-7.32v-12.55h-11.4v12.55h-7.27v-30.07h7.27v11.65h11.4v-11.65h7.32Zm26.62 0v5.78h-8.16v24.29H538v-24.29h-8.08v-5.78h23.52Zm36.88.21v29.86H583V1232l-6.46 18.67h-6.3l-6.5-18.71v18.71h-7.28v-29.86h8.89l8.13 20.8 7.95-20.8 8.89-.03Zm12.29 24.29h9.7v5.57h-17v-30.07h7.28l.02 24.5Z"/>
  <path fill="#00C650" d="M470.64 1144.19c-.011-.43.123-.85.38-1.2.303-.39.668-.73 1.08-1 .623-.32 1.268-.61 1.93-.84l1.93-.8 7.72-3.25c1.073-.5 3.073-1.33 6-2.5l3.67-1.5 1.32-.47.23-.1a.605.605 0 0 1 .19 0c.148-.07.308-.1.47-.1.31-.02.619.03.911.13.292.11.56.27.789.48.191.18.343.4.448.65.104.24.16.5.162.77v2.54c-.009.47-.159.93-.43 1.32-.272.44-.685.77-1.17.94l-15.77 6.45 15.77 6.45c.468.19.873.51 1.17.92.282.37.433.82.43 1.29v2.54a2.059 2.059 0 0 1-.61 1.44c-.225.22-.492.38-.785.49-.292.11-.604.16-.915.14-.161 0-.32-.03-.47-.09l-.42-.14-1.32-.47-3.67-1.51-6-2.49-7.72-3.25-1.93-.8c-.63-.25-1.27-.53-1.93-.85a2.522 2.522 0 0 1-1.46-2.12v-3.07Zm31.58 17.51a2.536 2.536 0 0 1-1.71-.59 1.758 1.758 0 0 1-.504-.62c-.12-.24-.183-.5-.186-.77 0-.38 1.13-3 3.39-8l3.3-7.25.7-1.51 5.32-11.81 1.88-4.09.38-.94c.146-.35.32-.68.52-1 .264-.43.638-.79 1.085-1.03.446-.24.948-.36 1.455-.34h2.35c.626-.02 1.239.19 1.72.59.211.17.381.38.499.62s.18.5.181.77a60.94 60.94 0 0 1-2.82 6.83l-.52 1.13-4 8.75-5.32 11.81-1.88 4.1-.38.94a5.93 5.93 0 0 1-.51 1.08c-.283.43-.669.77-1.121 1.01-.452.24-.957.37-1.469.36l-2.36-.04Zm24.71-2.7c-.318.02-.636-.03-.936-.13a2.335 2.335 0 0 1-.804-.5 2.005 2.005 0 0 1-.61-1.44v-2.54a2.22 2.22 0 0 1 .4-1.29c.299-.42.717-.74 1.2-.92l15.81-6.45-15.81-6.45a2.718 2.718 0 0 1-1.18-1 2.329 2.329 0 0 1-.42-1.3v-2.58c0-.27.056-.53.165-.78.108-.24.267-.46.465-.64a2.416 2.416 0 0 1 1.72-.61c.15 0 .298.03.43.1a.57.57 0 0 1 .26 0l.21.1c-.07 0 .36.12 1.27.47l3.72 1.5c-.193-.09 1.807.75 6 2.5 2.287.94 4.907 2.05 7.86 3.34.19.06.44.16.76.28l1.08.43c.634.23 1.246.51 1.83.84.422.19.782.49 1.04.88.257.38.403.83.42 1.29v3.1c-.004.43-.144.84-.4 1.18-.277.39-.639.71-1.06.94-.56.28-1.24.58-2 .9l-2 .8-17.42 7.29c-.5.25-.8.41-.89.47l-.19.14-.92.08Z"/>
  <path fill="#00C650" d="M140.1 49.24a20.632 20.632 0 0 1-20.62-20.62V0H27.34A26.91 26.91 0 0 0 .43 26.92v162.21a26.908 26.908 0 0 0 26.91 26.92h110.6a26.905 26.905 0 0 0 24.864-16.619 26.91 26.91 0 0 0 2.046-10.301V49.25l-24.75-.01Z" opacity="0.3"/>
  <path fill="#00C650" d="M164.85 49.24H140.1a20.632 20.632 0 0 1-20.62-20.62V0l45.37 49.24Zm19.52 121.36H59.33c-8.87 0-16.06 7.19-16.06 16.06v37.28c0 8.87 7.19 16.06 16.06 16.06h125.04c8.87 0 16.06-7.19 16.06-16.06v-37.28c0-8.87-7.19-16.06-16.06-16.06Z"/>
  <path fill="#fff" d="M84.65 213.37v7.28h-7.53v-7.28h7.53ZM107 190.58v20.54c0 3.153-.857 5.577-2.57 7.27a9.689 9.689 0 0 1-7.13 2.55 10.789 10.789 0 0 1-7.82-2.78c-1.927-1.86-2.893-4.527-2.9-8h7.19c0 2.81 1.07 4.21 3.19 4.21 1.85 0 2.77-1.08 2.77-3.23V190.6l7.27-.02Zm12.06 19.52v10.55h-7.27v-30.07h11.78c3.567 0 6.287.883 8.16 2.65a9.395 9.395 0 0 1 2.81 7.17 10.009 10.009 0 0 1-1.25 5 8.693 8.693 0 0 1-3.72 3.44 13.1 13.1 0 0 1-6 1.26h-4.51Zm8.08-9.7c0-2.667-1.46-4-4.38-4h-3.7v7.83h3.7c2.92.027 4.38-1.25 4.38-3.83Zm34.37-7.4a11.811 11.811 0 0 1 4.55 7.49h-7.7A5.87 5.87 0 0 0 156 198a7.14 7.14 0 0 0-3.79-1 7.053 7.053 0 0 0-5.52 2.32 8.997 8.997 0 0 0-2.09 6.27c0 2.86.73 5.057 2.19 6.59a8.21 8.21 0 0 0 6.23 2.3 7.515 7.515 0 0 0 4.55-1.43 7.571 7.571 0 0 0 2.77-4.06h-9.19v-5.23h15.27v7.19a14.617 14.617 0 0 1-2.72 4.89 14.092 14.092 0 0 1-4.79 3.66 15.212 15.212 0 0 1-6.65 1.4c-2.79.073-5.55-.593-8-1.93a13.21 13.21 0 0 1-5.25-5.43 16.718 16.718 0 0 1-1.85-8 16.714 16.714 0 0 1 1.85-7.95 13.284 13.284 0 0 1 5.23-5.43 15.637 15.637 0 0 1 7.89-1.93 15.06 15.06 0 0 1 9.38 2.77Z"/>
  <path fill="#00C650" d="M104.73 146.41H60.56a16.327 16.327 0 0 1-16.31-16.31V85.93a16.33 16.33 0 0 1 16.31-16.31h44.17a16.319 16.319 0 0 1 16.3 16.31v44.17a16.32 16.32 0 0 1-16.3 16.31ZM60.56 76.83a9.11 9.11 0 0 0-9.1 9.1v44.17a9.11 9.11 0 0 0 9.1 9.1h44.17a9.101 9.101 0 0 0 9.09-9.1V85.93a9.098 9.098 0 0 0-9.09-9.1H60.56Z"/>
  <path fill="#00C650" d="M117.43 121.7v8.4a12.712 12.712 0 0 1-12.7 12.7H60.56a12.699 12.699 0 0 1-12.7-12.7V116c7.07-1.52 17.84-2 30.91 3.22l8.1-7.72 5.52 14s1.48-5.15 6.26-4.42c4.78.73 12.52 3.32 15.83 1.11a4.255 4.255 0 0 1 2.95-.49Zm-15.47-26.75a4.91 4.91 0 1 0 0-9.82 4.91 4.91 0 0 0 0 9.82Z"/>
</svg>
