<svg xmlns="http://www.w3.org/2000/svg" width="201" height="241" fill="none" viewBox="0 0 201 241">
  <path fill="#0072FF" d="M140.38 49.25a20.648 20.648 0 0 1-20.62-20.63V0H27.63A26.91 26.91 0 0 0 .71 26.91v162.22a26.905 26.905 0 0 0 7.885 19.032 26.913 26.913 0 0 0 19.035 7.878h110.6a26.916 26.916 0 0 0 19.028-7.882 26.919 26.919 0 0 0 7.882-19.028V49.25h-24.76Z" opacity="0.3"/>
  <path fill="#0072FF" d="M165.14 49.25h-24.76a20.648 20.648 0 0 1-20.62-20.63V0l45.38 49.25Zm19.52 121.36H59.62c-8.87 0-16.06 7.19-16.06 16.06v37.28c0 8.87 7.19 16.06 16.06 16.06h125.04c8.87 0 16.06-7.19 16.06-16.06v-37.28c0-8.87-7.19-16.06-16.06-16.06Z"/>
  <path fill="#fff" d="M89.65 213.38v7.27h-7.53v-7.27h7.53Zm11.05-22.8v30.07h-7.27v-30.07h7.27Zm25.42 25.99a8.598 8.598 0 0 1-3.58 3.19 12.632 12.632 0 0 1-5.72 1.19 13.492 13.492 0 0 1-8.33-2.47 8.923 8.923 0 0 1-3.58-6.89h7.75a3.998 3.998 0 0 0 1.21 2.68 3.73 3.73 0 0 0 2.66 1 3.098 3.098 0 0 0 2.21-.77 2.659 2.659 0 0 0 .81-2 2.598 2.598 0 0 0-.75-1.91 5.81 5.81 0 0 0-1.85-1.26c-.74-.32-1.76-.71-3.06-1.17a37.556 37.556 0 0 1-4.66-1.89 8.618 8.618 0 0 1-3.1-2.72 7.85 7.85 0 0 1-1.3-4.7 7.907 7.907 0 0 1 1.36-4.64 8.71 8.71 0 0 1 3.77-3 13.757 13.757 0 0 1 5.5-1c2.862-.16 5.691.681 8 2.38a9.111 9.111 0 0 1 3.34 6.55h-7.87a3.996 3.996 0 0 0-1.09-2.36 3.179 3.179 0 0 0-2.36-.87 3 3 0 0 0-2.06.68 2.508 2.508 0 0 0-.79 2 2.551 2.551 0 0 0 .71 1.81 5.29 5.29 0 0 0 1.76 1.21c.71.31 1.73.71 3.06 1.19a32.969 32.969 0 0 1 4.72 1.94 8.932 8.932 0 0 1 3.15 2.78 8.003 8.003 0 0 1 1.32 4.76 8.324 8.324 0 0 1-1.23 4.29Zm27.26-24.48a14.543 14.543 0 0 1 5.47 5.48 15.793 15.793 0 0 1 2 7.94 15.77 15.77 0 0 1-2 8 14.596 14.596 0 0 1-5.49 5.51 15.203 15.203 0 0 1-7.68 2 15.223 15.223 0 0 1-7.68-2 14.5 14.5 0 0 1-5.48-5.51 15.665 15.665 0 0 1-2-8 15.597 15.597 0 0 1 2-7.94 14.562 14.562 0 0 1 5.48-5.48 15.223 15.223 0 0 1 7.68-2 15.278 15.278 0 0 1 7.7 2Zm-13.4 7.1a9.068 9.068 0 0 0-2.1 6.32 9.068 9.068 0 0 0 2.1 6.29 7.264 7.264 0 0 0 5.68 2.34 7.292 7.292 0 0 0 5.66-2.34c1.482-1.75 2.24-4 2.12-6.29a9.079 9.079 0 0 0-2.1-6.3 7.25 7.25 0 0 0-5.68-2.34 7.334 7.334 0 0 0-5.66 2.32h-.02Z"/>
  <path fill="#0072FF" d="M79.21 145.6a35.604 35.604 0 0 1-35.56-35.56 35.6 35.6 0 0 1 35.56-35.56 35.6 35.6 0 0 1 35.56 35.56 35.6 35.6 0 0 1-35.56 35.56Zm0-69a33.43 33.43 0 0 0-33.4 33.4 33.441 33.441 0 0 0 33.4 33.4 33.445 33.445 0 0 0 23.606-9.794A33.445 33.445 0 0 0 112.61 110a33.432 33.432 0 0 0-33.4-33.36v-.04Z"/>
  <path fill="#0072FF" d="M79.26 75.37v28.28a6.392 6.392 0 0 0-5.54 9.56l-24.37 14.07-.54-1a34.516 34.516 0 0 1-4.1-16.34v-.8a34.37 34.37 0 0 1 4.77-16.77 34.81 34.81 0 0 1 12.27-12.26 34.47 34.47 0 0 1 16.76-4.77l.75.03Zm34.6 34.63a34.399 34.399 0 0 1-4.48 17 34.51 34.51 0 0 1-13.06 13.07 34.301 34.301 0 0 1-17.06 4.5v-28.15a6.393 6.393 0 0 0 6.33-6.38 6.25 6.25 0 0 0-.87-3.21l24.51-14.16a34.467 34.467 0 0 1 4.62 16.51c.01.26.01.52.01.82Z"/>
  <path fill="#0072FF" d="M79.21 114.4a4.358 4.358 0 0 1-4.36-4.36 4.373 4.373 0 0 1 4.36-4.37 4.372 4.372 0 0 1 4.36 4.37 4.361 4.361 0 0 1-4.36 4.36Zm0-6.56a2.202 2.202 0 0 0-2.2 2.2 2.21 2.21 0 0 0 2.2 2.2 2.211 2.211 0 0 0 2.2-2.2 2.202 2.202 0 0 0-2.2-2.2Z"/>
</svg>
