<svg xmlns="http://www.w3.org/2000/svg" width="201" height="240" fill="none" viewBox="0 0 201 240">
  <path fill="#FF3E4C" d="M140 49.24a20.649 20.649 0 0 1-20.63-20.62V0H27.2A26.91 26.91 0 0 0 .29 26.91v162.22A26.91 26.91 0 0 0 27.2 216h110.6a26.907 26.907 0 0 0 26.91-26.91V49.24H140Z" opacity="0.3"/>
  <path fill="#FF3E4C" d="M164.71 49.24H140a20.649 20.649 0 0 1-20.63-20.62V0l45.34 49.24Zm19.52 121.36H59.19c-8.87 0-16.06 7.19-16.06 16.06v37.28c0 8.87 7.19 16.06 16.06 16.06h125.04c8.87 0 16.06-7.19 16.06-16.06v-37.28c0-8.87-7.19-16.06-16.06-16.06Z"/>
  <path fill="#fff" d="M67 213.37v7.27h-7.53v-7.27H67Zm22.31-22.8v20.54c0 3.15-.86 5.57-2.58 7.28a9.662 9.662 0 0 1-7.12 2.55 10.8 10.8 0 0 1-7.83-2.79c-1.93-1.85-2.89-4.53-2.89-8h7.19c0 2.813 1.063 4.22 3.19 4.22 1.84 0 2.76-1.08 2.76-3.24v-20.54l7.28-.02Zm23.43 24.58h-11.27l-1.87 5.49h-7.66l11-29.86h8.38l11 29.86h-7.74l-1.84-5.49Zm-1.87-5.53-3.74-11.05-3.79 11.05h7.53Zm19.91-19.05 7.35 22.63 7.36-22.63h7.79l-10.47 30.07h-9.4L123 190.57h7.78Zm43.93 24.58h-11.27l-1.87 5.49h-7.66l11-29.86h8.38l11 29.86h-7.74l-1.84-5.49Zm-1.87-5.53-3.74-11.05-3.79 11.05h7.53Z"/>
  <path fill="#FF3E4C" d="M67.4 154.14h-2.21c-5.1 0-9.163-1.497-12.19-4.49-3.027-2.993-4.537-7.037-4.53-12.13V121.2c0-6.24-2.483-9.36-7.45-9.36v-7.66c4.967 0 7.45-3.12 7.45-9.36V78.5c0-5.1 1.51-9.147 4.53-12.14 3.02-2.993 7.083-4.487 12.19-4.48h2.21v7.66h-1.51c-6 0-9 3.39-9 10.17v16.72c-.073 6-2.407 9.793-7 11.38v.4c4.5 1.48 6.833 5.173 7 11.08v17c0 6.78 3 10.17 9 10.17h1.51v7.68Zm30.19 0v-7.66h1.51c6 0 9-3.39 9-10.17v-17c.133-5.913 2.467-9.607 7-11.08v-.4c-4.573-1.613-6.907-5.407-7-11.38V79.73c0-6.78-3-10.17-9-10.17h-1.51V61.9h2.22c5.1 0 9.16 1.493 12.18 4.48 3.02 2.987 4.533 7.033 4.54 12.14v16.32c0 6.24 2.483 9.36 7.45 9.36v7.66c-4.967 0-7.45 3.12-7.45 9.36v16.32c0 5.1-1.513 9.143-4.54 12.13s-7.087 4.483-12.18 4.49l-2.22-.02ZM81.67 86.17a6.63 6.63 0 1 0 0-13.26 6.63 6.63 0 0 0 0 13.26Zm0 28.47a6.63 6.63 0 1 0 0-13.26 6.63 6.63 0 0 0 0 13.26Zm0 28.47a6.63 6.63 0 1 0 0-13.26 6.63 6.63 0 0 0 0 13.26Z"/>
</svg>
