<svg xmlns="http://www.w3.org/2000/svg" width="200" height="241" fill="none" viewBox="0 0 200 241">
  <path fill="#A140FF" d="M139.67 49.25a20.648 20.648 0 0 1-20.62-20.63V0H26.91A26.91 26.91 0 0 0 0 26.91v162.22A26.91 26.91 0 0 0 26.91 216h110.6a26.91 26.91 0 0 0 26.92-26.91V49.21l-24.76.04Z" opacity="0.3"/>
  <path fill="#A140FF" d="M164.43 49.25h-24.76a20.648 20.648 0 0 1-20.62-20.63V0l45.38 49.25Zm19.51 121.36H58.9c-8.87 0-16.06 7.19-16.06 16.06v37.28c0 8.87 7.19 16.06 16.06 16.06h125.04c8.87 0 16.06-7.19 16.06-16.06v-37.28c0-8.87-7.19-16.06-16.06-16.06Z"/>
  <path fill="#fff" d="M75.21 213.38v7.27h-7.52v-7.27h7.52Zm37.6-22.59v29.86h-7.27V202l-6.47 18.67h-6.29l-6.51-18.72v18.72H79v-29.86h8.89l8.12 20.8 8-20.8 8.8-.02ZM143 213.4a13.244 13.244 0 0 1-5.44 5.33 17.344 17.344 0 0 1-8.36 1.92h-11.37v-30.07h11.36a17.656 17.656 0 0 1 8.38 1.87 13.106 13.106 0 0 1 5.42 5.27 15.868 15.868 0 0 1 1.89 7.83 15.999 15.999 0 0 1-1.88 7.85Zm-7.83-1.51a8.352 8.352 0 0 0 1.852-2.92 8.353 8.353 0 0 0 .508-3.42 8.353 8.353 0 0 0-.508-3.42 8.352 8.352 0 0 0-1.852-2.92 9.19 9.19 0 0 0-6.61-2.25h-3.46v17.18h3.45a9.191 9.191 0 0 0 6.61-2.25h.01Zm36.19-4.09a7.252 7.252 0 0 1 1.59 4.64 7.469 7.469 0 0 1-2.57 6c-1.72 1.45-4.17 2.17-7.38 2.17h-14v-30.07h13.65c3.06 0 5.427.667 7.1 2a6.835 6.835 0 0 1 2.51 5.7 7.061 7.061 0 0 1-1.44 4.53 6.728 6.728 0 0 1-3.79 2.36 7.491 7.491 0 0 1 4.33 2.67Zm-15.08-4.93H161c2.527 0 3.79-1.077 3.79-3.23 0-2.16-1.29-3.23-3.87-3.23h-4.68l.04 6.46Zm9.23 8.55a3.15 3.15 0 0 0-1.06-2.53 4.5 4.5 0 0 0-3-.92h-5.15v6.77h5.19c2.68 0 4.02-1.107 4.02-3.32Z"/>
  <path fill="#A140FF" d="M82.21 67.93A18.461 18.461 0 0 0 63.75 86.4a18.45 18.45 0 0 0 12 17.29v5.91l2 2v6.4l-1.89 1.1v4.73l1.89 1.1v3.2l-2.25 1.3v3.9l2.25 1.31v4.44l-2.07 1.2v3.46l5.52 4.35h6l2.66-4.08v-40.82a18.471 18.471 0 0 0 10.83-16.81 18.47 18.47 0 0 0-18.48-18.45Zm.47 15A4.68 4.68 0 0 1 78 78.25a4.68 4.68 0 0 1 6.47-4.317 4.669 4.669 0 0 1 2.89 4.317 4.67 4.67 0 0 1-4.68 4.63v.05Z"/>
</svg>
