<svg xmlns="http://www.w3.org/2000/svg" width="201" height="240" fill="none" viewBox="0 0 201 240">
  <path fill="#005FAD" d="M139.81 49.24a20.641 20.641 0 0 1-20.62-20.62V0H27.06A26.91 26.91 0 0 0 .14 26.91v162.22A26.91 26.91 0 0 0 27.06 216h110.6a26.907 26.907 0 0 0 26.91-26.91V49.24h-24.76Z" opacity="0.3"/>
  <path fill="#005FAD" d="M164.57 49.24h-24.76a20.641 20.641 0 0 1-20.62-20.62V0l45.38 49.24Zm19.52 121.36H59.05c-8.87 0-16.06 7.19-16.06 16.06v37.28c0 8.87 7.19 16.06 16.06 16.06h125.04c8.87 0 16.06-7.19 16.06-16.06v-37.28c0-8.87-7.19-16.06-16.06-16.06Z"/>
  <path fill="#fff" d="M83.48 213.37v7.27H76v-7.27h7.48Zm37.6-22.59v29.86h-7.28V202l-6.46 18.67H101l-6.5-18.71v18.71h-7.28v-29.86h8.89l8.13 20.8 8-20.8 8.84-.03Zm12.29-.21v30.07h-7.27v-30.07h7.27Zm30.17 22.82a13.268 13.268 0 0 1-5.44 5.34 17.424 17.424 0 0 1-8.36 1.91h-11.35v-30.07h11.35a17.595 17.595 0 0 1 8.38 1.87 13.005 13.005 0 0 1 5.42 5.28 15.698 15.698 0 0 1 1.9 7.82c.054 2.737-.6 5.441-1.9 7.85Zm-7.82-1.51a8.357 8.357 0 0 0 2.36-6.34 8.368 8.368 0 0 0-2.36-6.34 9.223 9.223 0 0 0-6.62-2.25h-3.44v17.18h3.44a9.223 9.223 0 0 0 6.62-2.25Z"/>
  <path fill="#005FAD" d="M120.37 131.92h-10.95V87.66a5.59 5.59 0 0 0-5.59-5.59h-28a5.6 5.6 0 0 0-5.6 5.59v44.26h-11v-48A12.83 12.83 0 0 1 72.06 71.1h35.41a12.82 12.82 0 0 1 12.82 12.82l.08 48Z"/>
  <path fill="#005FAD" d="M107.39 144.9c7.169 0 12.98-5.811 12.98-12.98 0-7.169-5.811-12.98-12.98-12.98-7.169 0-12.98 5.811-12.98 12.98 0 7.169 5.811 12.98 12.98 12.98Zm-50.07 0c7.169 0 12.98-5.811 12.98-12.98 0-7.169-5.811-12.98-12.98-12.98-7.169 0-12.98 5.811-12.98 12.98 0 7.169 5.811 12.98 12.98 12.98Z"/>
</svg>
