<svg xmlns="http://www.w3.org/2000/svg" width="201" height="240" fill="none" viewBox="0 0 201 240">
  <path fill="#0072FF" d="M140.1 49.24a20.641 20.641 0 0 1-20.62-20.62V0H27.34A26.91 26.91 0 0 0 .43 26.91v162.22A26.91 26.91 0 0 0 27.34 216h110.6a26.91 26.91 0 0 0 19.031-7.879 26.904 26.904 0 0 0 7.879-19.031V49.24H140.1Z" opacity="0.3"/>
  <path fill="#0072FF" d="M164.85 49.24H140.1a20.641 20.641 0 0 1-20.62-20.62V0l45.37 49.24Zm19.52 121.36H59.33c-8.87 0-16.06 7.19-16.06 16.06v37.28c0 8.87 7.19 16.06 16.06 16.06h125.04c8.87 0 16.06-7.19 16.06-16.06v-37.28c0-8.87-7.19-16.06-16.06-16.06Z"/>
  <path fill="#fff" d="M73.84 213.37v7.27h-7.52v-7.27h7.52Zm37.6-22.58v29.85h-7.27V202l-6.47 18.67h-6.29l-6.51-18.71v18.71h-7.27v-29.85h8.89l8.12 20.79 8-20.79 8.8-.03Zm27.03 1.29a14.484 14.484 0 0 1 5.47 5.49 15.756 15.756 0 0 1 2 7.93 15.824 15.824 0 0 1-2 8 14.5 14.5 0 0 1-5.49 5.5 15.203 15.203 0 0 1-7.68 2 15.266 15.266 0 0 1-7.68-2 14.48 14.48 0 0 1-5.48-5.5 15.738 15.738 0 0 1-2-8 15.574 15.574 0 0 1 2-7.93 14.595 14.595 0 0 1 5.48-5.49 15.266 15.266 0 0 1 7.68-2 15.278 15.278 0 0 1 7.7 2Zm-13.4 7.11a9.001 9.001 0 0 0-2.1 6.31 9.08 9.08 0 0 0 2.1 6.3 7.264 7.264 0 0 0 5.68 2.34 7.272 7.272 0 0 0 5.66-2.34 9.003 9.003 0 0 0 2.13-6.3 9.062 9.062 0 0 0-2.11-6.29 7.263 7.263 0 0 0-5.68-2.34 7.296 7.296 0 0 0-5.68 2.32Zm30.56-8.62L163 213.2l7.36-22.63h7.78l-10.46 30.07h-9.4l-10.42-30.07h7.77Z"/>
  <path fill="#0072FF" d="M78.61 69.61a38.4 38.4 0 1 0 0 76.8A38.407 38.407 0 0 0 117 108a38.41 38.41 0 0 0-38.39-38.39Zm0 7.48a7.68 7.68 0 1 1 0 15.359 7.68 7.68 0 0 1 0-15.359ZM51.83 92.55a7.68 7.68 0 0 1 12.745-.836 7.678 7.678 0 0 1-4.104 12.094A7.681 7.681 0 0 1 51.83 92.55Zm10.49 33.74a7.677 7.677 0 0 1-8.516-.565 7.681 7.681 0 0 1-1.974-2.255 7.68 7.68 0 0 1 8.641-11.258 7.691 7.691 0 0 1 4.669 3.578 7.69 7.69 0 0 1-2.82 10.5Zm16.29 12.65a7.681 7.681 0 1 1 2.94-14.778 7.668 7.668 0 0 1 4.74 7.098 7.682 7.682 0 0 1-7.68 7.68Zm26.78-15.47a7.68 7.68 0 0 1-4.66 3.587 7.66 7.66 0 0 1-5.83-.767 7.692 7.692 0 0 1-2.81-10.5 7.678 7.678 0 0 1 10.49-2.81 7.671 7.671 0 0 1 2.81 10.49ZM102.58 103a7.68 7.68 0 0 1-11.257-8.637A7.68 7.68 0 1 1 102.58 103Z"/>
  <path fill="#0072FF" d="M114.74 138.48a7.601 7.601 0 0 1-1.57-.17c-4.27-1-6-5.54-6-5.73a1.307 1.307 0 0 1 .355-1.427c.129-.117.281-.206.445-.263a1.304 1.304 0 0 1 1.416.351c.116.127.206.277.264.439 0 .06 1.29 3.43 4.13 4.06 2.42.53 5.55-1 9.06-4.54a1.31 1.31 0 0 1 .935-.388 1.31 1.31 0 0 1 .935.388 1.318 1.318 0 0 1 0 1.86c-3.63 3.61-6.96 5.42-9.97 5.42Z"/>
</svg>
