<svg xmlns="http://www.w3.org/2000/svg" width="201" height="240" fill="none" viewBox="0 0 201 240">
  <path fill="#FF3E4C" d="M140.24 49.24a20.641 20.641 0 0 1-20.62-20.62V0H27.48A26.91 26.91 0 0 0 .57 26.91v162.22A26.91 26.91 0 0 0 27.48 216h110.61A26.911 26.911 0 0 0 165 189.12V49.24h-24.76Z" opacity="0.3"/>
  <path fill="#FF3E4C" d="M165 49.24h-24.76a20.641 20.641 0 0 1-20.62-20.62V0L165 49.24Zm19.51 121.36H59.47c-8.87 0-16.06 7.19-16.06 16.06v37.28c0 8.87 7.19 16.06 16.06 16.06h125.04c8.87 0 16.06-7.19 16.06-16.06v-37.28c0-8.87-7.19-16.06-16.06-16.06Z"/>
  <path fill="#fff" d="M79.23 213.37v7.27H71.7v-7.27h7.53Zm37.6-22.59v29.86h-7.27V202l-6.47 18.67H96.8l-6.51-18.71v18.71H83v-29.86h8.89l8.12 20.8 8-20.8 8.82-.03Zm12.29 19.31v10.55h-7.27v-30.07h11.78c3.57 0 6.3.89 8.17 2.66a9.384 9.384 0 0 1 2.8 7.16 9.825 9.825 0 0 1-1.25 5 8.77 8.77 0 0 1-3.72 3.45 13.222 13.222 0 0 1-6 1.25h-4.51Zm8.08-9.7c0-2.627-1.46-3.943-4.38-3.95h-3.7v7.83h3.7c2.92 0 4.38-1.293 4.38-3.88Zm26.71-10.05a7.907 7.907 0 0 1 3.43 3 8.002 8.002 0 0 1 1.17 4.28 7.11 7.11 0 0 1-1.51 4.72 6.54 6.54 0 0 1-3.77 2.25v.22c3.893 1.24 5.837 3.663 5.83 7.27a8.923 8.923 0 0 1-1.19 4.61 8.056 8.056 0 0 1-3.47 3.15 12.228 12.228 0 0 1-5.46 1.13c-3.46 0-6.21-.85-8.23-2.55-2.02-1.7-3.13-4.3-3.3-7.79h7.1a4.917 4.917 0 0 0 1.11 3.15 3.753 3.753 0 0 0 3 1.15 3.27 3.27 0 0 0 2.48-.94 3.307 3.307 0 0 0 .92-2.42c0-2.473-1.787-3.707-5.36-3.7h-1.36v-5.91h1.32c3.2.047 4.8-1.103 4.8-3.45a3.15 3.15 0 0 0-.83-2.36 2.998 2.998 0 0 0-2.23-.83 3.004 3.004 0 0 0-2.42 1 4.648 4.648 0 0 0-1 2.79h-7.11a10.127 10.127 0 0 1 3-7.32c1.84-1.7 4.42-2.55 7.74-2.55 1.84-.039 3.665.337 5.34 1.1Z"/>
  <path fill="#FF3E4C" d="M120.8 131.92h-10.95V87.66a5.59 5.59 0 0 0-5.59-5.59h-28a5.59 5.59 0 0 0-5.59 5.59v44.26h-11v-48A12.82 12.82 0 0 1 72.5 71.1H108a12.82 12.82 0 0 1 12.82 12.82l-.02 48Z"/>
  <path fill="#FF3E4C" d="M107.82 144.9c7.169 0 12.98-5.811 12.98-12.98 0-7.169-5.811-12.98-12.98-12.98-7.169 0-12.98 5.811-12.98 12.98 0 7.169 5.811 12.98 12.98 12.98Zm-50.07 0c7.169 0 12.98-5.811 12.98-12.98 0-7.169-5.811-12.98-12.98-12.98-7.169 0-12.98 5.811-12.98 12.98 0 7.169 5.811 12.98 12.98 12.98Z"/>
</svg>
