<svg xmlns="http://www.w3.org/2000/svg" width="201" height="240" fill="none" viewBox="0 0 201 240">
  <path fill="#00C650" d="M140.53 49.24a20.649 20.649 0 0 1-20.63-20.62V0H27.77A26.91 26.91 0 0 0 .86 26.91v162.22A26.91 26.91 0 0 0 27.77 216h110.6a26.907 26.907 0 0 0 26.91-26.91V49.24h-24.75Z" opacity="0.3"/>
  <path fill="#00C650" d="M165.28 49.24h-24.75a20.649 20.649 0 0 1-20.63-20.62V0l45.38 49.24ZM184.8 170.6H59.76c-8.87 0-16.06 7.19-16.06 16.06v37.28c0 8.87 7.19 16.06 16.06 16.06H184.8c8.87 0 16.06-7.19 16.06-16.06v-37.28c0-8.87-7.19-16.06-16.06-16.06Z"/>
  <path fill="#fff" d="M65.92 213.37v7.27h-7.53v-7.27h7.53Zm37.6-22.58v29.85h-7.28V202l-6.46 18.67h-6.3l-6.5-18.71v18.71H69.7v-29.85h8.89l8.13 20.79 8-20.79 8.8-.03Zm12.29 19.31v10.54h-7.27v-30.07h11.78c3.567 0 6.287.887 8.16 2.66a9.376 9.376 0 0 1 2.81 7.17 10.009 10.009 0 0 1-1.25 5 8.751 8.751 0 0 1-3.72 3.44 13.088 13.088 0 0 1-6 1.26h-4.51Zm8.08-9.7c0-2.667-1.46-4-4.38-4h-3.7v7.83h3.7c2.92.027 4.38-1.25 4.38-3.83Zm18.25-4.04v6.29h10.16v5.49h-10.16v6.68h11.44v5.82h-18.72v-30.07h18.72v5.79h-11.44ZM181.1 193a11.783 11.783 0 0 1 4.55 7.49H178a5.942 5.942 0 0 0-2.34-2.58 7.131 7.131 0 0 0-3.79-1 7.112 7.112 0 0 0-5.53 2.31 9.098 9.098 0 0 0-2.08 6.28c0 2.86.73 5.057 2.19 6.59a8.21 8.21 0 0 0 6.23 2.3 7.517 7.517 0 0 0 4.55-1.43A7.573 7.573 0 0 0 180 209h-9.19v-5.23H186V211a14.815 14.815 0 0 1-2.72 4.89 14.172 14.172 0 0 1-4.79 3.66 15.212 15.212 0 0 1-6.65 1.4 15.83 15.83 0 0 1-8-1.94 13.173 13.173 0 0 1-5.25-5.42 16.74 16.74 0 0 1-1.85-7.95 16.779 16.779 0 0 1 1.85-8 13.327 13.327 0 0 1 5.23-5.42 15.637 15.637 0 0 1 7.89-1.93 15.06 15.06 0 0 1 9.39 2.71Z"/>
  <path fill="#00C650" d="M120.3 131.91V84.2a3.898 3.898 0 0 0-.07-.69 1.113 1.113 0 0 0 0-.2c0-.16-.09-.31-.14-.46l-.09-.2a2.893 2.893 0 0 0-.23-.42l-.09-.16a5.135 5.135 0 0 0-.42-.51l-.07-.06a4.815 4.815 0 0 0-.43-.36l-.18-.11c-.13-.08-.27-.15-.41-.22l-.2-.09c-.16-.06-.324-.11-.49-.15h-.16a3.079 3.079 0 0 0-.68-.07H49.28a3.73 3.73 0 0 0-3.39 3.71v47.85c-.02.613.175 1.214.55 1.7a3.73 3.73 0 0 0 3.2 1.82h67a3.74 3.74 0 0 0 3.66-3.67ZM49.81 89.48v-7.24h5.89v7.24h-5.89Zm9.94 0v-7.24h5.89v7.24h-5.89Zm9.94 0v-7.24h5.89v7.24h-5.89Zm9.94 0v-7.24h5.89v7.24h-5.89Zm9.94 0v-7.24h5.89v7.24h-5.89Zm9.94 0v-7.24h5.89v7.24h-5.89Zm9.94 0v-7.24h5.89v7.24h-5.89Zm-61 35.11V91.44h69.22v33.15H48.45Zm1.35 9.19v-7.24h5.89v7.24H49.8Zm9.94 0v-7.24h5.89v7.24h-5.89Zm9.94 0v-7.24h5.89v7.24h-5.89Zm9.94 0v-7.24h5.89v7.24h-5.89Zm9.94 0v-7.24h5.89v7.24h-5.89Zm9.94 0v-7.24h5.89v7.24H99.5Zm9.94 0v-7.24h5.89v7.24h-5.89Z"/>
  <path fill="#00C650" d="m91.08 105.56-9.57-5.53a3.26 3.26 0 0 0-4.89 2.82v11.06a3.26 3.26 0 0 0 4.89 2.82l9.57-5.53a3.264 3.264 0 0 0 1.624-2.82 3.26 3.26 0 0 0-1.624-2.82Z"/>
</svg>
