<svg xmlns="http://www.w3.org/2000/svg" width="200" height="240" fill="none" viewBox="0 0 200 240">
  <path fill="#005FAD" d="M139.67 49.24a20.641 20.641 0 0 1-20.62-20.62V0H26.91A26.91 26.91 0 0 0 0 26.91v162.21A26.91 26.91 0 0 0 26.91 216h110.6a26.918 26.918 0 0 0 26.92-26.92V49.2l-24.76.04Z" opacity="0.3"/>
  <path fill="#005FAD" d="M164.43 49.24h-24.76a20.641 20.641 0 0 1-20.62-20.62V0l45.38 49.24Zm19.51 121.36H58.9c-8.87 0-16.06 7.19-16.06 16.06v37.28c0 8.87 7.19 16.06 16.06 16.06h125.04c8.87 0 16.06-7.19 16.06-16.06v-37.28c0-8.87-7.19-16.06-16.06-16.06Z"/>
  <path fill="#fff" d="M98.12 213.37v7.28h-7.53v-7.28h7.53Zm11.06-3.27v10.55h-7.28v-30.07h11.79c3.567 0 6.287.883 8.16 2.65a9.434 9.434 0 0 1 2.81 7.17 9.849 9.849 0 0 1-1.26 5 8.577 8.577 0 0 1-3.72 3.44 13.009 13.009 0 0 1-6 1.26h-4.5Zm8.08-9.7c0-2.667-1.46-4-4.38-4h-3.7v7.83h3.7c2.92.027 4.38-1.25 4.38-3.83Zm31.37 16.16a8.465 8.465 0 0 1-3.58 3.19 12.496 12.496 0 0 1-5.72 1.19 13.48 13.48 0 0 1-8.33-2.46 8.941 8.941 0 0 1-3.58-6.89h7.74a4.132 4.132 0 0 0 1.22 2.68 3.72 3.72 0 0 0 2.65 1 3.104 3.104 0 0 0 2.22-.76 2.694 2.694 0 0 0 .8-2 2.602 2.602 0 0 0-.174-1.036 2.603 2.603 0 0 0-.566-.884 5.723 5.723 0 0 0-1.85-1.25c-.74-.327-1.76-.717-3.06-1.17a37.098 37.098 0 0 1-4.66-1.89 8.58 8.58 0 0 1-3.11-2.73 7.9 7.9 0 0 1-1.29-4.7 7.882 7.882 0 0 1 1.36-4.63 8.664 8.664 0 0 1 3.76-3 13.802 13.802 0 0 1 5.51-1c2.862-.158 5.69.683 8 2.38a9.081 9.081 0 0 1 3.33 6.55h-7.86a4.101 4.101 0 0 0-1.09-2.36 3.186 3.186 0 0 0-2.36-.87 3 3 0 0 0-2.06.68 2.492 2.492 0 0 0-.79 2 2.494 2.494 0 0 0 .7 1.8 5.45 5.45 0 0 0 1.77 1.22c.71.31 1.73.71 3.06 1.19a33.035 33.035 0 0 1 4.72 1.93 9.073 9.073 0 0 1 3.15 2.79 8.003 8.003 0 0 1 1.32 4.76 8.354 8.354 0 0 1-1.23 4.27Z"/>
  <path fill="#005FAD" d="M50.06 130.81s-6.52-13.83 1.91-27.33c0 0 2.49 7.26 4.54 6.78 0 0-2.61-10.41-.69-13.49 0 0 8.32-11.92 17.51-18.37 0 0 .29 7.09 2.45 7.67 0 0-.34-4.38 2.71-11 0 0 14.8-11.4 39.5-10.36 0 0-9.75 15.09-15.23 25.28a175.912 175.912 0 0 1-9.54 16s-7.26 4.25-12 3.85c0 0 4 3.14 8.34 1.58 0 0-11.05 20-32.49 22.53 0 0-4 8.23-4.8 15.43 0 0-4 2.42-5.88 2 0 0 10.37-39.84 45.72-68.69.05 0-20.33 5.39-42.05 48.12Z"/>
</svg>
