<svg xmlns="http://www.w3.org/2000/svg" width="201" height="241" fill="none" viewBox="0 0 201 241">
  <path fill="#005FAD" d="M140.1 49.25a20.639 20.639 0 0 1-20.62-20.63V0H27.34A26.91 26.91 0 0 0 .43 26.91v162.22a26.908 26.908 0 0 0 26.91 26.91h110.6a26.907 26.907 0 0 0 26.91-26.91V49.25H140.1Z" opacity="0.3"/>
  <path fill="#005FAD" d="M164.85 49.25H140.1a20.639 20.639 0 0 1-20.62-20.63V0l45.37 49.25Zm19.52 121.36H59.33c-8.87 0-16.06 7.19-16.06 16.06v37.28c0 8.87 7.19 16.06 16.06 16.06h125.04c8.87 0 16.06-7.19 16.06-16.06v-37.28c0-8.87-7.19-16.06-16.06-16.06Z"/>
  <path fill="#fff" d="M84.12 213.38v7.27h-7.53v-7.27h7.53Zm11.06-3.28v10.55H87.9v-30.07h11.79c3.57 0 6.29.88 8.16 2.66a9.407 9.407 0 0 1 2.81 7.16 10.009 10.009 0 0 1-1.25 5 8.74 8.74 0 0 1-3.73 3.45 13.168 13.168 0 0 1-6 1.25h-4.5Zm8.08-9.7c0-2.633-1.46-3.967-4.38-4h-3.7v7.82h3.7c2.92.033 4.38-1.24 4.38-3.82Zm31.37 16.17a8.598 8.598 0 0 1-3.58 3.19 12.629 12.629 0 0 1-5.72 1.19 13.492 13.492 0 0 1-8.33-2.47 8.923 8.923 0 0 1-3.58-6.89h7.75a3.998 3.998 0 0 0 1.21 2.68 3.73 3.73 0 0 0 2.66 1 3.098 3.098 0 0 0 2.21-.77 2.673 2.673 0 0 0 .81-2 2.598 2.598 0 0 0-.75-1.91 5.928 5.928 0 0 0-1.85-1.26c-.74-.32-1.76-.71-3.06-1.17a37.556 37.556 0 0 1-4.66-1.89 8.618 8.618 0 0 1-3.1-2.72 7.85 7.85 0 0 1-1.3-4.7 7.907 7.907 0 0 1 1.36-4.64 8.744 8.744 0 0 1 3.76-3 13.854 13.854 0 0 1 5.51-1c2.862-.16 5.691.681 8 2.38a9.111 9.111 0 0 1 3.34 6.55h-7.87a4.002 4.002 0 0 0-1.09-2.36 3.186 3.186 0 0 0-2.36-.87 3 3 0 0 0-2.06.68 2.492 2.492 0 0 0-.79 2 2.58 2.58 0 0 0 .7 1.81 5.443 5.443 0 0 0 1.77 1.21c.71.31 1.73.71 3.06 1.19a32.969 32.969 0 0 1 4.72 1.94 8.932 8.932 0 0 1 3.15 2.78 8.003 8.003 0 0 1 1.32 4.76 8.324 8.324 0 0 1-1.23 4.29ZM165 213.4a13.202 13.202 0 0 1-5.45 5.33 17.28 17.28 0 0 1-8.35 1.92h-11.36v-30.07h11.36a17.59 17.59 0 0 1 8.37 1.87 13.077 13.077 0 0 1 5.43 5.27 15.868 15.868 0 0 1 1.89 7.83 16.003 16.003 0 0 1-1.89 7.85Zm-7.83-1.51a8.352 8.352 0 0 0 1.852-2.92 8.353 8.353 0 0 0 .508-3.42 8.353 8.353 0 0 0-.508-3.42 8.352 8.352 0 0 0-1.852-2.92 9.191 9.191 0 0 0-6.61-2.25h-3.45v17.18h3.45a9.187 9.187 0 0 0 6.65-2.25h-.04Z"/>
  <path fill="#005FAD" d="M50.48 130.81s-6.51-13.83 1.92-27.33c0 0 2.49 7.26 4.54 6.79 0 0-2.61-10.41-.69-13.49 0 0 8.32-11.93 17.5-18.38 0 0 .3 7.09 2.46 7.67 0 0-.34-4.38 2.71-11 0 0 14.8-11.4 39.5-10.36 0 0-9.75 15.1-15.23 25.28a177.093 177.093 0 0 1-9.54 16s-7.26 4.24-12 3.84c0 0 4 3.14 8.34 1.59 0 0-11.05 20-32.49 22.52 0 0-4 8.23-4.8 15.44 0 0-4 2.42-5.88 2 0 0 10.37-39.83 45.72-68.69.05 0-20.33 5.39-42.06 48.12Z"/>
</svg>
