<svg xmlns="http://www.w3.org/2000/svg" width="201" height="241" fill="none" viewBox="0 0 201 241">
  <path fill="#FF3E4C" d="M140 49.25a20.649 20.649 0 0 1-20.63-20.62V0H27.2A26.91 26.91 0 0 0 .29 26.91v162.22A26.91 26.91 0 0 0 27.2 216h110.6a26.907 26.907 0 0 0 26.91-26.91V49.21l-24.71.04Z" opacity="0.3"/>
  <path fill="#FF3E4C" d="M164.71 49.25H140a20.649 20.649 0 0 1-20.63-20.62V0l45.34 49.25Zm19.52 121.36H59.19c-8.87 0-16.06 7.19-16.06 16.06v37.28c0 8.87 7.19 16.06 16.06 16.06h125.04c8.87 0 16.06-7.19 16.06-16.06v-37.28c0-8.87-7.19-16.06-16.06-16.06Z"/>
  <path fill="#fff" d="M89.33 210.1v10.55h-7.28v-30.07h11.79c3.573 0 6.293.887 8.16 2.66a9.401 9.401 0 0 1 2.81 7.17 9.819 9.819 0 0 1-1.26 5 8.658 8.658 0 0 1-3.72 3.45 12.992 12.992 0 0 1-6 1.25l-4.5-.01Zm8.08-9.69c0-2.667-1.46-4-4.38-4h-3.7v7.83h3.7c2.92.027 4.38-1.25 4.38-3.83Zm18.03-9.83v17.35a6.87 6.87 0 0 0 1.34 4.56 4.835 4.835 0 0 0 3.89 1.57 4.842 4.842 0 0 0 3.9-1.57 6.87 6.87 0 0 0 1.34-4.56v-17.35h7.27v17.35a14.235 14.235 0 0 1-1.66 7.17 10.849 10.849 0 0 1-4.53 4.38 14.003 14.003 0 0 1-6.49 1.47 13.53 13.53 0 0 1-6.38-1.45 10.184 10.184 0 0 1-4.33-4.38 14.993 14.993 0 0 1-1.58-7.19v-17.35h7.23Zm44.94 17.23a7.236 7.236 0 0 1 1.59 4.63 7.48 7.48 0 0 1-2.57 6c-1.72 1.447-4.18 2.17-7.38 2.17h-14v-30.07h13.65c3.06 0 5.427.667 7.1 2a6.835 6.835 0 0 1 2.51 5.7 7.061 7.061 0 0 1-1.44 4.53 6.67 6.67 0 0 1-3.79 2.36 7.562 7.562 0 0 1 4.33 2.68Zm-15.08-4.94h4.76c2.53 0 3.79-1.07 3.79-3.23s-1.29-3.23-3.87-3.23h-4.68v6.46Zm9.23 8.55a3.2 3.2 0 0 0-1.06-2.53 4.501 4.501 0 0 0-3-.91h-5.15v6.76h5.19c2.673 0 4.013-1.107 4.02-3.32Z"/>
  <path fill="#FF3E4C" d="M71.3 83.73H27.64a3.74 3.74 0 0 1-3.74-3.74 3.74 3.74 0 0 1 3.74-3.75H71.3A3.75 3.75 0 0 1 75 80a3.75 3.75 0 0 1-3.7 3.73Zm0 22.37H27.64a3.741 3.741 0 0 1-3.458-5.174 3.736 3.736 0 0 1 3.458-2.316H71.3a3.75 3.75 0 0 1 3.74 3.75 3.752 3.752 0 0 1-3.74 3.74Zm0 22.37H27.64a3.733 3.733 0 0 1-2.648-1.099 3.736 3.736 0 0 1-1.092-2.651 3.742 3.742 0 0 1 3.74-3.74H71.3a3.752 3.752 0 0 1 3.74 3.74 3.75 3.75 0 0 1-3.74 3.75Zm0 22.37H27.64a3.733 3.733 0 0 1-2.648-1.099 3.736 3.736 0 0 1-1.092-2.651 3.742 3.742 0 0 1 3.74-3.74H71.3a3.75 3.75 0 0 1 3.74 3.74 3.75 3.75 0 0 1-3.74 3.75Zm59.58-67.11H88.32a3.74 3.74 0 0 1-3.74-3.74 3.741 3.741 0 0 1 3.74-3.75h42.56a3.751 3.751 0 0 1 3.75 3.75 3.752 3.752 0 0 1-3.75 3.74Zm0 22.37H88.32a3.741 3.741 0 0 1-3.458-5.174 3.738 3.738 0 0 1 3.458-2.316h42.56a3.751 3.751 0 0 1 3.75 3.75 3.75 3.75 0 0 1-3.75 3.74Zm0 22.37H88.32a3.732 3.732 0 0 1-2.648-1.099 3.738 3.738 0 0 1-1.092-2.651 3.742 3.742 0 0 1 3.74-3.74h42.56a3.75 3.75 0 0 1 3.75 3.74 3.752 3.752 0 0 1-3.75 3.75Zm0 22.37H88.32a3.732 3.732 0 0 1-2.648-1.099 3.738 3.738 0 0 1-1.092-2.651 3.742 3.742 0 0 1 3.74-3.74h42.56a3.75 3.75 0 0 1 3.75 3.74 3.752 3.752 0 0 1-3.75 3.75Z"/>
</svg>
