<svg xmlns="http://www.w3.org/2000/svg" width="201" height="241" fill="none" viewBox="0 0 201 241">
  <path fill="#A140FF" d="M139.81 49.25a20.648 20.648 0 0 1-20.62-20.63V0H27.06A26.91 26.91 0 0 0 .14 26.91v162.22a26.905 26.905 0 0 0 7.885 19.032 26.915 26.915 0 0 0 19.035 7.878h110.6a26.907 26.907 0 0 0 26.91-26.91V49.25h-24.76Z" opacity="0.3"/>
  <path fill="#A140FF" d="M164.57 49.25h-24.76a20.648 20.648 0 0 1-20.62-20.63V0l45.38 49.25Zm19.52 121.36H59.05c-8.87 0-16.06 7.19-16.06 16.06v37.28c0 8.87 7.19 16.06 16.06 16.06h125.04c8.87 0 16.06-7.19 16.06-16.06v-37.28c0-8.87-7.19-16.06-16.06-16.06Z"/>
  <path fill="#fff" d="M82.05 213.38v7.27h-7.53v-7.27h7.53Zm19.23 7.27-6.51-11.36h-1.66v11.36h-7.27v-30.07h12.42a13.449 13.449 0 0 1 6 1.23 8.58 8.58 0 0 1 3.7 3.38 9.74 9.74 0 0 1 1.23 4.92 8.703 8.703 0 0 1-1.81 5.57 9.169 9.169 0 0 1-5.25 3.14l7.15 11.83h-8Zm-8.17-16.33h4.51a4.517 4.517 0 0 0 3.19-1 3.705 3.705 0 0 0 1-2.83 3.771 3.771 0 0 0-1-2.81 4.38 4.38 0 0 0-3.17-1h-4.51l-.02 7.64Zm38.41 10.84h-11.27l-1.88 5.49h-7.65l11-29.86h8.37l11 29.86h-7.74l-1.83-5.49Zm-1.87-5.53-3.75-11.06-3.78 11.06h7.53Zm29.73 11.02-6.51-11.36h-1.66v11.36h-7.27v-30.07h12.42a13.449 13.449 0 0 1 6 1.23 8.575 8.575 0 0 1 3.7 3.38 9.74 9.74 0 0 1 1.23 4.92 8.697 8.697 0 0 1-1.81 5.57 9.169 9.169 0 0 1-5.25 3.14l7.15 11.83h-8Zm-8.17-16.33h4.51a4.537 4.537 0 0 0 3.19-1 3.705 3.705 0 0 0 1-2.83 3.771 3.771 0 0 0-1-2.81 4.38 4.38 0 0 0-3.17-1h-4.51l-.02 7.64Z"/>
  <path fill="#A140FF" d="M95.11 150.84H32.59a3.751 3.751 0 0 1-3.74-3.75 3.742 3.742 0 0 1 3.74-3.74h62.52a3.734 3.734 0 0 1 2.651 1.092 3.73 3.73 0 0 1 1.099 2.648 3.751 3.751 0 0 1-3.75 3.75Zm0-22.09H32.59a3.751 3.751 0 0 1-3.74-3.75 3.75 3.75 0 0 1 3.74-3.74h62.52a3.75 3.75 0 0 1 3.75 3.74 3.751 3.751 0 0 1-3.75 3.75Zm0-22.09H32.59a3.741 3.741 0 0 1-2.645-6.388 3.75 3.75 0 0 1 2.645-1.102h62.52a3.75 3.75 0 0 1 3.464 5.184 3.737 3.737 0 0 1-3.464 2.306Zm0-22.09H32.59a3.74 3.74 0 1 1 0-7.48h62.52a3.741 3.741 0 0 1 1.434 7.198 3.74 3.74 0 0 1-1.434.282Zm28.04 67.95a12.697 12.697 0 0 1-12.69-12.69v-12.69h25.37v12.69a12.702 12.702 0 0 1-12.68 12.69Zm-6.2-18.89v6.2a6.213 6.213 0 0 0 6.2 6.2 6.21 6.21 0 0 0 6.2-6.2v-6.2h-12.4Z"/>
  <path fill="#A140FF" d="M110.46 127.15h12.72v-12.72h-12.72v12.72Z"/>
  <path fill="#A140FF" d="M123.14 114.44h12.72v-12.72h-12.72v12.72Z"/>
  <path fill="#A140FF" d="M110.46 101.73h12.72V89.01h-12.72v12.72Z"/>
  <path fill="#A140FF" d="M123.14 89.02h12.72V76.3h-12.72v12.72Z"/>
</svg>
