<svg xmlns="http://www.w3.org/2000/svg" width="200" height="240" fill="none" viewBox="0 0 200 240">
  <path fill="#FF3E4C" d="M139.67 49.24a20.641 20.641 0 0 1-20.62-20.62V0H26.91A26.91 26.91 0 0 0 0 26.9v162.22A26.91 26.91 0 0 0 26.91 216h110.6a26.91 26.91 0 0 0 26.92-26.91V49.24h-24.76Z" opacity="0.3"/>
  <path fill="#FF3E4C" d="M164.43 49.24h-24.76a20.641 20.641 0 0 1-20.62-20.62V0l45.38 49.24Zm19.51 121.36H58.9c-8.87 0-16.06 7.19-16.06 16.06v37.28c0 8.87 7.19 16.06 16.06 16.06h125.04c8.87 0 16.06-7.19 16.06-16.06v-37.28c0-8.87-7.19-16.06-16.06-16.06Z"/>
  <path fill="#fff" d="M72.7 213.37v7.27h-7.52v-7.27h7.52Zm19.23 7.27-6.51-11.35h-1.66v11.35h-7.27v-30.07h12.42c2.07-.058 4.123.366 6 1.24a8.519 8.519 0 0 1 3.7 3.38 9.7 9.7 0 0 1 1.23 4.91 8.76 8.76 0 0 1-1.8 5.57 9.292 9.292 0 0 1-5.26 3.15l7.22 11.82h-8.07Zm-8.17-16.33h4.51a4.517 4.517 0 0 0 3.19-1 3.676 3.676 0 0 0 1-2.82 3.757 3.757 0 0 0-1-2.81 4.36 4.36 0 0 0-3.17-1h-4.51l-.02 7.63Zm38.41 10.85H110.9l-1.9 5.48h-7.66l11-29.85h8.38l11 29.85H124l-1.83-5.48Zm-1.87-5.53-3.74-11.06-3.79 11.06h7.53Zm55.16-19.06-7.18 30.07h-9l-4.81-20.11-4.85 20.11h-9l-7.19-30.07h7.91l3.87 21.78 5.27-21.78h8l5.27 21.78 3.91-21.78h7.8Z"/>
  <path fill="#FF3E4C" d="M65.34 123.66H41.06A43.918 43.918 0 0 1 38.2 108a43.92 43.92 0 0 1 2.86-15.65 43.65 43.65 0 0 1 2.69-5.75l3.35 5.75 9.19 15.77 4 6.94 5.05 8.6Zm50.98 12.18a44.005 44.005 0 0 1-26.78 15.58 44.775 44.775 0 0 1-6.71.6l3.54-6 9-15.36 4.08-7 5-8.56 4.9 8.56 4 7 2.97 5.18Zm9.91-27.84a43.709 43.709 0 0 1-2.87 15.65 44.074 44.074 0 0 1-2.69 5.78l-3.3-5.78-8.86-15.47-4-7-5.08-8.87h23.9a43.714 43.714 0 0 1 2.9 15.69ZM120 85.41H77.32l5.09-8.88 4-7 2.85-5a43.938 43.938 0 0 1 27.37 16 43.865 43.865 0 0 1 3.37 4.88ZM81.57 64l-3.17 5.53-9.09 15.88-4 7-5 8.81-5.14-8.81-4-7-3-5.18A43.94 43.94 0 0 1 81.57 64Zm5.75 66.62-5 8.46-4 6.88-3.21 5.5a43.997 43.997 0 0 1-26.81-15.39 45.082 45.082 0 0 1-3.86-5.45h42.88Z"/>
</svg>
