<svg xmlns="http://www.w3.org/2000/svg" width="201" height="240" fill="none" viewBox="0 0 201 240">
  <path fill="#FF9908" d="M140.53 49.24a20.649 20.649 0 0 1-20.63-20.62V0H27.77A26.91 26.91 0 0 0 .86 26.91v162.22A26.91 26.91 0 0 0 27.77 216h110.6a26.907 26.907 0 0 0 26.91-26.91V49.24h-24.75Z" opacity="0.3"/>
  <path fill="#FF9908" d="M165.28 49.24h-24.75a20.649 20.649 0 0 1-20.63-20.62V0l45.38 49.24ZM184.8 170.6H59.76c-8.87 0-16.06 7.19-16.06 16.06v37.28c0 8.87 7.19 16.06 16.06 16.06H184.8c8.87 0 16.06-7.19 16.06-16.06v-37.28c0-8.87-7.19-16.06-16.06-16.06Z"/>
  <path fill="#fff" d="M86.76 213.37v7.27h-7.53v-7.27h7.53Zm19.24 7.27-6.51-11.36h-1.66v11.36h-7.27v-30.07H103a13.422 13.422 0 0 1 6 1.23 8.58 8.58 0 0 1 3.7 3.38 9.74 9.74 0 0 1 1.23 4.92 8.762 8.762 0 0 1-1.8 5.57 9.292 9.292 0 0 1-5.26 3.15l7.15 11.82H106Zm-8.17-16.33h4.51a4.521 4.521 0 0 0 3.19-1 3.705 3.705 0 0 0 1-2.83 3.72 3.72 0 0 0-1-2.8 4.311 4.311 0 0 0-3.17-1h-4.51l-.02 7.63ZM138 216.56a8.598 8.598 0 0 1-3.58 3.19 12.634 12.634 0 0 1-5.72 1.19 13.422 13.422 0 0 1-8.33-2.47 8.923 8.923 0 0 1-3.58-6.89h7.74a4.08 4.08 0 0 0 1.22 2.68 3.72 3.72 0 0 0 2.65 1 3.109 3.109 0 0 0 2.22-.77 2.703 2.703 0 0 0 .8-2 2.62 2.62 0 0 0-.74-1.91 5.928 5.928 0 0 0-1.85-1.26c-.74-.32-1.76-.71-3.06-1.17a37.619 37.619 0 0 1-4.66-1.89 8.618 8.618 0 0 1-3.1-2.72 7.85 7.85 0 0 1-1.3-4.7 7.914 7.914 0 0 1 1.36-4.64 8.744 8.744 0 0 1 3.76-3 13.819 13.819 0 0 1 5.51-1 12.398 12.398 0 0 1 8 2.38 9.126 9.126 0 0 1 3.34 6.55h-7.87a4.101 4.101 0 0 0-1.09-2.36 3.186 3.186 0 0 0-2.36-.87 3 3 0 0 0-2.06.68 2.489 2.489 0 0 0-.79 2 2.58 2.58 0 0 0 .7 1.81 5.443 5.443 0 0 0 1.77 1.21c.71.31 1.73.71 3.06 1.19a32.969 32.969 0 0 1 4.72 1.94 8.997 8.997 0 0 1 3.15 2.78 8.003 8.003 0 0 1 1.32 4.77 8.392 8.392 0 0 1-1.23 4.28Zm25.63 0a8.63 8.63 0 0 1-3.57 3.19 12.632 12.632 0 0 1-5.72 1.19 13.453 13.453 0 0 1-8.34-2.47 8.932 8.932 0 0 1-3.57-6.89h7.74a4.069 4.069 0 0 0 1.21 2.68 3.749 3.749 0 0 0 2.66 1 3.083 3.083 0 0 0 2.21-.77 2.673 2.673 0 0 0 .81-2 2.659 2.659 0 0 0-.74-1.91 6.002 6.002 0 0 0-1.85-1.26c-.74-.32-1.76-.71-3.07-1.17a36.752 36.752 0 0 1-4.65-1.89 8.64 8.64 0 0 1-3.11-2.72 7.914 7.914 0 0 1-1.29-4.7 7.907 7.907 0 0 1 1.36-4.64 8.684 8.684 0 0 1 3.76-3 13.819 13.819 0 0 1 5.51-1 12.386 12.386 0 0 1 8 2.38 9.09 9.09 0 0 1 3.34 6.55h-7.87a4.004 4.004 0 0 0-1.08-2.36 3.186 3.186 0 0 0-2.36-.87 2.999 2.999 0 0 0-2.06.68 2.489 2.489 0 0 0-.79 2 2.537 2.537 0 0 0 .7 1.81 5.433 5.433 0 0 0 1.77 1.21c.7.31 1.72.71 3.06 1.19a32.969 32.969 0 0 1 4.72 1.94 9.006 9.006 0 0 1 3.15 2.78 8 8 0 0 1 1.32 4.77 8.326 8.326 0 0 1-1.25 4.28Z"/>
  <path fill="#FF9908" d="M58.72 139.61a7.25 7.25 0 1 0 0-14.5 7.25 7.25 0 0 0 0 14.5ZM51.47 97v9.45a33.213 33.213 0 0 1 33.17 33.17h9.45A42.67 42.67 0 0 0 51.47 97Z"/>
  <path fill="#FF9908" d="M114.67 139.61h-9.45a53.812 53.812 0 0 0-53.75-53.75v-9.45a63.27 63.27 0 0 1 63.2 63.2Z"/>
</svg>
