<svg xmlns="http://www.w3.org/2000/svg" width="200" height="240" fill="none" viewBox="0 0 200 240">
  <path fill="#A140FF" d="M139.67 49.24a20.641 20.641 0 0 1-20.62-20.62V0H26.91A26.91 26.91 0 0 0 0 26.92v162.21a26.908 26.908 0 0 0 26.91 26.92h110.6c7.14 0 13.987-2.836 19.035-7.885a26.916 26.916 0 0 0 7.885-19.035V49.25l-24.76-.01Z" opacity="0.3"/>
  <path fill="#A140FF" d="M164.43 49.24h-24.76a20.641 20.641 0 0 1-20.62-20.62V0l45.38 49.24Zm19.51 121.36H58.9c-8.87 0-16.06 7.19-16.06 16.06v37.28c0 8.87 7.19 16.06 16.06 16.06h125.04c8.87 0 16.06-7.19 16.06-16.06v-37.28c0-8.87-7.19-16.06-16.06-16.06Z"/>
  <path fill="#fff" d="M83.63 213.37v7.28H76.1v-7.28h7.53ZM109 190.58v5.78h-8.16v24.29h-7.32v-24.29h-8.08v-5.78H109Zm10.36 0v30.07h-7.28v-30.07h7.28Zm24.64 0v5.78h-12.33v6.59h9.53v5.53h-9.53v12.17h-7.27v-30.07H144Zm23.33 0v5.78H155v6.59h9.53v5.53H155v12.17h-7.27v-30.07h19.6Z"/>
  <path fill="#A140FF" d="M104.31 146.41H60.13a16.327 16.327 0 0 1-16.31-16.31V85.93a16.33 16.33 0 0 1 16.31-16.31h44.18a16.32 16.32 0 0 1 16.29 16.31v44.17a16.322 16.322 0 0 1-16.29 16.31ZM60.13 76.83a9.11 9.11 0 0 0-9.1 9.1v44.17a9.11 9.11 0 0 0 9.1 9.1h44.18a9.111 9.111 0 0 0 9.09-9.1V85.93a9.111 9.111 0 0 0-9.09-9.1H60.13Z"/>
  <path fill="#A140FF" d="M117 121.7v8.4a12.703 12.703 0 0 1-12.69 12.7H60.13a12.699 12.699 0 0 1-12.7-12.7V116c7.07-1.52 17.84-2 30.92 3.22l8.09-7.72 5.52 14s1.48-5.15 6.26-4.42c4.78.73 12.52 3.32 15.83 1.11a4.255 4.255 0 0 1 2.95-.49Zm-15.46-26.75a4.91 4.91 0 1 0 0-9.82 4.91 4.91 0 0 0 0 9.82Z"/>
</svg>
