<svg xmlns="http://www.w3.org/2000/svg" width="201" height="240" fill="none" viewBox="0 0 201 240">
  <path fill="#00C650" d="M140.38 49.24a20.641 20.641 0 0 1-20.62-20.62V0H27.63A26.91 26.91 0 0 0 .71 26.91v162.22A26.91 26.91 0 0 0 27.63 216h110.6a26.916 26.916 0 0 0 19.028-7.882 26.919 26.919 0 0 0 7.882-19.028V49.24h-24.76Z" opacity="0.3"/>
  <path fill="#00C650" d="M165.14 49.24h-24.76a20.641 20.641 0 0 1-20.62-20.62V0l45.38 49.24Zm19.52 121.36H59.62c-8.87 0-16.06 7.19-16.06 16.06v37.28c0 8.87 7.19 16.06 16.06 16.06h125.04c8.87 0 16.06-7.19 16.06-16.06v-37.28c0-8.87-7.19-16.06-16.06-16.06Z"/>
  <path fill="#fff" d="M72.06 213.37v7.27h-7.53v-7.27h7.53Zm44.66-22.8-7.19 30.07h-9l-4.8-20.12-4.85 20.12h-9l-7.19-30.07h7.91l3.87 21.78 5.28-21.78h8l5.28 21.78 3.91-21.78h7.78Zm22.46 24.58H127.9l-1.87 5.49h-7.65l11-29.86h8.38l11 29.86h-7.74l-1.84-5.49Zm-1.88-5.53-3.74-11.05-3.78 11.05h7.52Zm19.91-19.05 7.36 22.63 7.36-22.63h7.78l-10.46 30.07h-9.4l-10.42-30.07h7.78Z"/>
  <path fill="#00C650" d="M120.94 131.92h-11V87.66a5.59 5.59 0 0 0-5.59-5.59h-28a5.59 5.59 0 0 0-5.59 5.59v44.26H59.81v-48A12.82 12.82 0 0 1 72.63 71.1h35.41a12.82 12.82 0 0 1 12.82 12.82l.08 48Z"/>
  <path fill="#00C650" d="M107.96 144.9c7.169 0 12.98-5.811 12.98-12.98 0-7.169-5.811-12.98-12.98-12.98-7.169 0-12.98 5.811-12.98 12.98 0 7.169 5.811 12.98 12.98 12.98Zm-50.06 0c7.169 0 12.98-5.811 12.98-12.98 0-7.169-5.811-12.98-12.98-12.98-7.169 0-12.98 5.811-12.98 12.98 0 7.169 5.811 12.98 12.98 12.98Z"/>
</svg>
