<svg xmlns="http://www.w3.org/2000/svg" width="200" height="240" fill="none" viewBox="0 0 200 240">
  <path fill="#FF9908" d="M139.67 49.24a20.641 20.641 0 0 1-20.62-20.62V0H26.91A26.91 26.91 0 0 0 0 26.9v162.22A26.91 26.91 0 0 0 26.91 216h110.6a26.91 26.91 0 0 0 26.92-26.91V49.24h-24.76Z" opacity="0.3"/>
  <path fill="#FF9908" d="M164.43 49.24h-24.76a20.641 20.641 0 0 1-20.62-20.62V0l45.38 49.24Zm19.51 121.36H58.9c-8.87 0-16.06 7.19-16.06 16.06v37.28c0 8.87 7.19 16.06 16.06 16.06h125.04c8.87 0 16.06-7.19 16.06-16.06v-37.28c0-8.87-7.19-16.06-16.06-16.06Z"/>
  <path fill="#fff" d="M67 213.37v7.27h-7.53v-7.27H67Zm44.66-22.8-7.19 30.07h-9l-4.8-20.12-4.85 20.12h-9l-7.19-30.07h7.91l3.87 21.78 5.28-21.78h8l5.28 21.78 3.91-21.78h7.78Zm37.64.21v29.86H142V202l-6.47 18.67h-6.29l-6.51-18.71v18.71h-7.28v-29.86h8.89l8.13 20.8 7.95-20.8 8.88-.03Zm23.7 24.37h-11.32l-1.88 5.49h-7.65l11-29.86h8.38l11 29.86h-7.74l-1.79-5.49Zm-1.87-5.53-3.75-11.05-3.78 11.05h7.53Z"/>
  <path fill="#FF9908" d="M117.65 131.92H106.7V87.66a5.59 5.59 0 0 0-5.59-5.59h-28a5.59 5.59 0 0 0-5.59 5.59v44.26h-11v-48A12.83 12.83 0 0 1 69.35 71.1h35.41a12.82 12.82 0 0 1 12.82 12.82l.07 48Z"/>
  <path fill="#FF9908" d="M104.67 144.9c7.169 0 12.98-5.811 12.98-12.98 0-7.169-5.811-12.98-12.98-12.98-7.169 0-12.98 5.811-12.98 12.98 0 7.169 5.811 12.98 12.98 12.98Zm-50.07 0c7.169 0 12.98-5.811 12.98-12.98 0-7.169-5.811-12.98-12.98-12.98-7.169 0-12.98 5.811-12.98 12.98 0 7.169 5.811 12.98 12.98 12.98Z"/>
</svg>
