<svg xmlns="http://www.w3.org/2000/svg" width="201" height="240" fill="none" viewBox="0 0 201 240">
  <path fill="#A140FF" d="M140.1 49.24a20.641 20.641 0 0 1-20.62-20.62V0H27.34A26.91 26.91 0 0 0 .43 26.91v162.22A26.91 26.91 0 0 0 27.34 216h110.6a26.907 26.907 0 0 0 26.91-26.91V49.24H140.1Z" opacity="0.3"/>
  <path fill="#A140FF" d="M164.85 49.24H140.1a20.641 20.641 0 0 1-20.62-20.62V0l45.37 49.24Zm19.52 121.36H59.33c-8.87 0-16.06 7.19-16.06 16.06v37.28c0 8.87 7.19 16.06 16.06 16.06h125.04c8.87 0 16.06-7.19 16.06-16.06v-37.28c0-8.87-7.19-16.06-16.06-16.06Z"/>
  <path fill="#fff" d="M81.27 213.37v7.27h-7.53v-7.27h7.53Zm22.03 7.27-6.34-9.36-5.44 9.36h-8.34l9.62-15.48-9.91-14.59h8.63l6.17 9.06 5.31-9.06h8.3l-9.49 15.14 10.13 14.93h-8.64Zm45.26-29.86v29.86h-7.28V202l-6.46 18.67h-6.3l-6.5-18.71v18.71h-7.28v-29.86h8.89l8.13 20.8 7.95-20.8 8.85-.03Zm12.29 24.29h9.7v5.57h-17v-30.07h7.28l.02 24.5Z"/>
  <path fill="#A140FF" d="M40.94 114.19a1.93 1.93 0 0 1 .37-1.2c.303-.39.668-.727 1.08-1a15.755 15.755 0 0 1 1.93-.84l1.93-.8 7.72-3.25c1.073-.5 3.073-1.333 6-2.5l3.67-1.5 1.32-.47.23-.1a.467.467 0 0 1 .19 0c.148-.065.308-.099.47-.1a2.318 2.318 0 0 1 1.7.61 1.933 1.933 0 0 1 .61 1.42V107a2.44 2.44 0 0 1-.42 1.32 2.328 2.328 0 0 1-1.18.94l-15.77 6.45 15.77 6.45a2.8 2.8 0 0 1 1.18.92c.275.374.422.826.42 1.29v2.54a1.996 1.996 0 0 1-.61 1.44 2.25 2.25 0 0 1-1.7.63 1.351 1.351 0 0 1-.47-.09l-.42-.14-1.32-.47L60 126.8l-6-2.49-7.72-3.25-1.93-.8c-.62-.25-1.27-.53-1.93-.85a2.52 2.52 0 0 1-1.45-2.12l-.03-3.1Zm47.11 17.51a2.839 2.839 0 0 1-2.5-1.37 4.113 4.113 0 0 1-.51-1l-.33-.89-7.2-15.91-.52-1.18c-.6-1.28-1.76-3.82-3.48-7.62-2.233-4.833-3.35-7.483-3.35-7.95a1.86 1.86 0 0 1 .71-1.46 2.63 2.63 0 0 1 1.79-.62H75a2.79 2.79 0 0 1 2.45 1.37l.52 1 .33.89 1.88 4.14 5.32 11.77.7 1.5 3.3 7.25a75.826 75.826 0 0 1 3.34 8 1.857 1.857 0 0 1-.71 1.45 2.617 2.617 0 0 1-1.79.62l-2.29.01Zm8.71-2.7a2.317 2.317 0 0 1-1.75-.63 2.06 2.06 0 0 1-.61-1.44v-2.54a2.211 2.211 0 0 1 .4-1.29c.3-.42.717-.74 1.2-.92l15.82-6.45L96 109.29a2.647 2.647 0 0 1-1.17-1 2.29 2.29 0 0 1-.43-1.3v-2.58A1.9 1.9 0 0 1 95 103a2.39 2.39 0 0 1 1.72-.61.876.876 0 0 1 .42.1.757.757 0 0 1 .26 0l.21.1c-.06 0 .36.12 1.27.47l3.72 1.5c-.193-.087 1.807.747 6 2.5 2.287.94 4.907 2.053 7.86 3.34l.75.28 1.08.43a11.65 11.65 0 0 1 1.84.84 2.498 2.498 0 0 1 1.46 2.17v3.1a2.073 2.073 0 0 1-.4 1.18 3.22 3.22 0 0 1-1.06.94c-.57.28-1.24.58-2 .9l-2 .8-17.42 7.29c-.5.25-.8.41-.89.47l-.19.14-.87.06Z"/>
</svg>
