<svg xmlns="http://www.w3.org/2000/svg" width="201" height="241" fill="none" viewBox="0 0 201 241">
  <path fill="#FF3E4C" d="M140.24 49.25a20.648 20.648 0 0 1-20.62-20.63V0H27.48A26.91 26.91 0 0 0 .57 26.91v162.22A26.91 26.91 0 0 0 27.48 216h110.61A26.91 26.91 0 0 0 165 189.13V49.25h-24.76Z" opacity="0.3"/>
  <path fill="#FF3E4C" d="M165 49.25h-24.76a20.648 20.648 0 0 1-20.62-20.63V0L165 49.25Zm19.51 121.36H59.47c-8.87 0-16.06 7.19-16.06 16.06v37.28c0 8.87 7.19 16.06 16.06 16.06h125.04c8.87 0 16.06-7.19 16.06-16.06v-37.28c0-8.87-7.19-16.06-16.06-16.06Z"/>
  <path fill="#fff" d="M92.92 213.38v7.27h-7.53v-7.27h7.53Zm11.31 1.4h13.27v5.87H96.15v-5.53l13.06-18.71H96.32v-5.83h21.1v5.53l-13.19 18.67Zm25.01-24.2v30.07H122v-30.07h7.24Zm12.29 19.52v10.55h-7.27v-30.07H146c3.57 0 6.3.88 8.17 2.66a9.393 9.393 0 0 1 2.81 7.16 9.859 9.859 0 0 1-1.26 5 8.77 8.77 0 0 1-3.72 3.45 13.22 13.22 0 0 1-6 1.25h-4.47Zm8.08-9.7c0-2.633-1.46-3.967-4.38-4h-3.7v7.82h3.7c2.92.033 4.38-1.24 4.38-3.82Z"/>
  <path fill="#FF3E4C" d="M82.77 152.52a12.698 12.698 0 0 1-12.68-12.69v-12.69h25.37v12.69a12.698 12.698 0 0 1-12.69 12.69Zm-6.19-18.89v6.2a6.201 6.201 0 0 0 6.19 6.2 6.212 6.212 0 0 0 6.2-6.2v-6.2H76.58Z"/>
  <path fill="#FF3E4C" d="M70.08 127.15H82.8v-12.72H70.08v12.72Z"/>
  <path fill="#FF3E4C" d="M82.77 114.44h12.72v-12.72H82.77v12.72Z"/>
  <path fill="#FF3E4C" d="M70.08 101.73H82.8V89.01H70.08v12.72Z"/>
  <path fill="#FF3E4C" d="M82.77 89.02h12.72V76.3H82.77v12.72Z"/>
</svg>
