<svg xmlns="http://www.w3.org/2000/svg" viewBox="0 0 34 34" xml:space="preserve">
  <path fill="#51A3EE" d="M17 23c-3.313 0-6-2.687-6-6s2.687-6 6-6 6 2.687 6 6-2.687 6-6 6z"/>
  <path fill="#51A3EE" d="M5.376 19.05c-1.738.307-2.93 1.985-2.263 3.62a14.9972 14.9972 0 0 0 4.346 5.904 15.007 15.007 0 0 0 9.803 3.424 14.998 14.998 0 0 0 9.678-3.764 14.9905 14.9905 0 0 0 4.137-6.053c.61-1.656-.64-3.293-2.388-3.539-1.749-.246-3.318 1.027-4.182 2.566a8.5645 8.5645 0 0 1-1.804 2.236 8.6064 8.6064 0 0 1-5.552 2.16 8.6108 8.6108 0 0 1-7.506-4.137c-.917-1.507-2.53-2.724-4.269-2.417z"/>
  <path fill="#0E4F8B" d="M31.884 18.875C31.96 18.26 32 17.635 32 17c0-8.284-6.716-15-15-15S2 8.716 2 17c0 .814.065 1.614.19 2.394.689-.942 1.764-1.616 2.926-1.821 1.257-.222 2.399.084 3.365.652-.058-.4-.087-.809-.087-1.225 0-4.753 3.854-8.606 8.606-8.606s8.606 3.854 8.606 8.606c0 .313-.017.623-.049.928.945-.604 2.076-.948 3.34-.771 1.167.164 2.266.8 2.987 1.718z"/>
</svg>