<?xml version="1.0" standalone="no"?>
<!DOCTYPE svg PUBLIC "-//W3C//DTD SVG 20010904//EN"
 "http://www.w3.org/TR/2001/REC-SVG-20010904/DTD/svg10.dtd">
<svg version="1.0" xmlns="http://www.w3.org/2000/svg"
 width="620.000000pt" height="620.000000pt" viewBox="0 0 620.000000 620.000000"
 preserveAspectRatio="xMidYMid meet">
<metadata>
Created by potrace 1.11, written by Peter Selinger 2001-2013
</metadata>
<g transform="translate(0.000000,620.000000) scale(0.100000,-0.100000)"
fill="#000000" stroke="none">
<path d="M3299 6198 c-1 -2 -2 -330 -3 -730 -1 -399 -3 -729 -6 -731 -3 -3
-59 -7 -125 -10 -66 -4 -131 -9 -145 -11 -14 -3 -45 -7 -70 -10 -25 -3 -70
-10 -100 -16 -30 -6 -67 -14 -81 -16 -22 -4 -80 -20 -219 -58 -132 -37 -449
-179 -532 -237 -14 -11 -29 -19 -33 -19 -22 0 -325 -216 -399 -284 -21 -20
-41 -36 -43 -36 -8 0 -246 -243 -294 -300 -81 -95 -168 -212 -219 -290 -5 -8
-21 -32 -35 -53 -63 -95 -217 -396 -218 -424 0 -7 -4 -13 -9 -13 -4 0 -8 -10
-8 -23 0 -13 -4 -27 -9 -32 -16 -16 -96 -272 -107 -345 -3 -14 -7 -36 -10 -50
-9 -44 -11 -54 -20 -110 -4 -30 -7 -58 -6 -63 1 -4 -1 -7 -6 -7 -4 0 -7 -15
-7 -32 0 -18 -4 -64 -8 -103 -5 -38 -10 -106 -13 -150 -3 -44 -7 -81 -9 -83
-5 -5 -95 -7 -95 -2 0 3 -53 4 -117 2 -102 -2 -160 -2 -273 0 -80 1 -80 1 -80
-79 l0 -73 1648 0 1648 0 -1 -887 c0 -489 1 -896 4 -906 3 -15 13 -17 75 -15
l71 3 0 1048 c0 576 2 1047 6 1047 3 0 25 -19 50 -43 182 -178 397 -248 654
-215 141 19 317 91 473 195 103 68 272 231 272 262 0 5 4 11 8 13 13 5 95 144
126 213 27 58 54 132 61 164 2 9 8 37 14 64 6 26 13 64 16 84 2 19 7 39 11 42
3 3 240 7 527 7 287 1 525 2 530 3 4 0 7 34 7 74 l0 72 -535 0 c-476 -1 -535
1 -536 15 -4 59 -20 183 -29 225 -5 22 -11 51 -14 65 -30 153 -114 368 -198
509 -21 34 -38 67 -38 72 0 5 -3 9 -7 9 -5 0 -15 12 -24 28 -49 86 -246 299
-336 365 -24 17 -43 34 -43 39 0 4 -6 8 -14 8 -8 0 -16 4 -18 9 -10 26 -279
178 -413 233 -148 60 -372 109 -535 117 -13 1 -15 88 -15 736 l0 735 -72 0
c-40 0 -74 -1 -74 -2z m-4 -2933 l1 -1304 -66 -1 c-36 0 -74 -1 -85 -1 -98 2
-160 -1 -168 -6 -6 -4 -7 -1 -2 7 5 9 4 11 -4 6 -16 -10 -101 -13 -101 -3 0 5
-4 5 -10 2 -5 -3 -69 -5 -142 -5 -177 1 -210 0 -221 -7 -6 -4 -7 -1 -2 7 5 9
4 11 -4 6 -14 -9 -101 -13 -101 -5 0 3 -10 5 -22 2 -50 -8 -196 -8 -191 1 4 5
0 6 -7 1 -7 -4 -43 -7 -79 -6 -36 1 -79 2 -96 2 -16 0 -129 0 -250 0 -323 -1
-357 -1 -368 -8 -6 -4 -7 -1 -2 7 5 9 4 11 -4 6 -16 -10 -101 -13 -101 -3 0 5
-4 5 -10 2 -5 -3 -67 -5 -137 -5 -70 0 -137 1 -148 1 -64 -1 -242 0 -252 1 -9
1 -11 15 -8 47 5 40 8 82 18 216 2 17 5 35 8 40 3 6 6 26 7 45 2 20 5 47 8 60
5 25 6 33 19 105 7 40 35 149 55 215 6 19 13 43 15 52 2 10 20 59 41 110 83
210 209 435 337 603 182 239 349 410 582 593 54 42 126 92 134 92 5 0 11 3 13
8 10 24 360 215 473 259 165 63 296 102 435 129 14 3 34 8 45 11 11 3 40 7 65
9 25 2 45 3 45 4 0 5 53 10 145 16 58 3 107 8 109 10 24 24 26 -86 26 -1321z
m557 -391 c97 -56 95 -239 -2 -289 -65 -34 -103 -10 -116 71 l-6 42 -72 -2
-71 -1 3 -35 c7 -91 36 -156 88 -197 186 -146 441 83 387 347 -7 35 -10 66 -7
69 3 3 210 6 460 6 377 1 454 -2 459 -13 3 -8 2 -18 -1 -24 -3 -5 -8 -23 -11
-41 -11 -68 -76 -225 -142 -341 -79 -138 -242 -301 -365 -363 -46 -23 -167
-72 -191 -77 -5 -1 -19 -5 -30 -9 -69 -22 -264 -32 -318 -16 -18 6 -42 12 -55
15 -134 27 -312 164 -369 284 -84 176 -53 392 73 515 82 79 206 104 286 59z"/>
</g>
</svg>
